
<global>
ampeg_release=1.50
master-volume=-6.0
</global>

<group>
group_label=RR1_0-42
lpc_hicc1=42
lpc_locc1=0
seq_length=4
seq_position=1

<region>
hikey=a3
hivel=127
lokey=g#3
lovel=1
lpc=lT6HQOCKA8GoYfNA0UKFwC28BEDoOKK/JaoMP5wdNL/BcbM/sSN9v+mQ971xKO08XBuCPt8Hbzs9W8C+zH3IO51WBT8zPAW/WG6ZvOB7aT399oq+cYFbPjmMer3/Mgi+
lpc_rms=-59.89
offset=12512
pitch_keycenter=a3
sample=Violin2Solo_pizzicato_PP_A3_RR1.opus
</region>

<region>
hikey=a4
hivel=127
lokey=g#4
lovel=1
lpc=sHGgQIE4KcEHTSBBSjeZwNzScb5VzrE/NrShPxXRgsDF5mlAuDcUwJkaOkCovFDAz9AtQAcIs7/nEgU/30JevtwtQL7WAzE+4S+5PmA1Bb/lF+A9IlYEP+kWjb/koFc/
lpc_rms=-48.86
pitch_keycenter=a4
sample=Violin2Solo_pizzicato_PP_A4_RR1.opus
</region>

<region>
hikey=a5
hivel=127
lokey=g#5
lovel=1
lpc=tbu+QLkPNsH0AylBIgPXwCU/GED6PGNAmwDEwBvLrEDUJ43AH+OTP9jsbUDPM4DARvTgP2Zjt77aC7a/KgwoQP2mFDxCZL+/MKCVPS/EzT7AkrY8XcdhPx1OYr740jW/
lpc_rms=-48.74
pitch_keycenter=a5
sample=Violin2Solo_pizzicato_PP_A5_RR1.opus
</region>

<region>
hikey=a6
hivel=127
lokey=g#6
lovel=1
lpc=ucuNQBUyBMHDfedAqqt5wINrAEB5c1s/KbIowJ7D4z+QxYC/5CuAP13/Kb53Tme98bqJPkUPDcAWs9Y/78KQP9bTN8Bt3z1APBhfwB287z/YFQg/Ej+Lv3VfrT4vmDy+
lpc_rms=-50.57
offset=13822
pitch_keycenter=a6
sample=Violin2Solo_pizzicato_PP_A6_RR1.opus
</region>

<region>
hikey=b3
hivel=127
lokey=a#3
lovel=1
lpc=mxrxQIoTi8GLF5pBlDhUwZBOzEA3S4TAAubaP0d/az6w7ko+jy7rvzDvT0ADlSbApXzDPqXGGEC4Rz3A4R4/P9sihj8metm/XVS4P4jW3L6+Mcm/81sOQF51UL9MJEA+
lpc_rms=-47.68
pitch_keycenter=b3
sample=Violin2Solo_pizzicato_PP_B3_RR1.opus
</region>

<region>
hikey=b4
hivel=127
lokey=a#4
lovel=1
lpc=uk/gQKXmZMHbB0dBaUbewKGIuD8pjoNAXseqwEwVHT+SroFA4OHbwPUID0FadMTAcPGEPzIEFECMsxXAcfMmvcvSN0ATCoLAr21QQM3w2L//9bC/QaNZQBMmGMAp8T0/
lpc_rms=-41.72
pitch_keycenter=b4
sample=Violin2Solo_pizzicato_PP_B4_RR1.opus
</region>

<region>
hikey=b5
hivel=127
lokey=a#5
lovel=1
lpc=vN3vQImUF8EahZpABCDlvyswgT0FSa49nauIP+nGR8Avzn9Ae81MwHvrjUDp0VrAgMWtP53/r7+9p2ZAynJgwNDaEUDEJA7AHB47P//oIj/XXAe/Hrb1Pt8C8L2SzmK/
lpc_rms=-34.32
pitch_keycenter=b5
sample=Violin2Solo_pizzicato_PP_B5_RR1.opus
</region>

<region>
hikey=E7
hivel=127
lokey=a#6
lovel=1
lpc=wVn8P6AQA8AhZLo/6/Ylv0JyWj9309e+BZkTPj6wrr5wRjA+Ls9Mvt7VAj/gENe+POkfv9+GJD8Ivby9Qq8Lvk0SvbxdaS2+eT2WPRN5gL2YU989H6LgvrLkYj50Mz2+
lpc_rms=-52.35
offset=11573
pitch_keycenter=B6
sample=Violin2Solo_pizzicato_PP_B6_RR1.opus
</region>

<region>
hikey=c#4
hivel=127
lokey=c4
lovel=1
lpc=x2PwQF2Eh8H0R49BtVpOwRltFkHCU/HAxAJCQI+Uwr8NNn9AJhSCwPgI473CahRAVJa3v5QRFkD8Go7AyauWQNykY8AksTZAs25HwA/TQUCI4TbAAGkgQHxihr/9aIY+
lpc_rms=-48.81
offset=36
pitch_keycenter=c#4
sample=Violin2Solo_pizzicato_PP_C#4_RR1.opus
</region>

<region>
hikey=c#5
hivel=127
lokey=c5
lovel=1
lpc=UfbDQDrUPcFiZzRBb9PRwGSY0T/qU0g/U4kwPqLrT8BkQHtApM4hwB7x/j08PAJAxVcPwK3muD5IpwRAef0fwGmanT/TTw9AB4pawAvbDkBAVW2/DtAUPzIpkr/eiWw/
lpc_rms=-44.97
pitch_keycenter=c#5
sample=Violin2Solo_pizzicato_PP_C#5_RR1.opus
</region>

<region>
hikey=c#6
hivel=127
lokey=c6
lovel=1
lpc=KWKRQDn9xsBY+JlA4tRdwHFtCEA6G4u/Gti0P59XF8AKUeE/p9Tqv26DTEACMADAEIZxP+1Ww79qnKA/YhxRv7xgoz+wkLC/1QpPP6+RpL8csrI/rOoAwIzKhz9TFtS+
lpc_rms=-47.10
offset=9705
pitch_keycenter=c#6
sample=Violin2Solo_pizzicato_PP_C#6_RR1.opus
</region>

<region>
hikey=d#4
hivel=127
lokey=d4
lovel=1
lpc=nOyvQEASRMHZRlRBYz4XwT6Mm0BNeBrA4dLWP0UjS8D9RppAivqIwMynE0AC3XC/H+lpP1zRrr/is+0/Vkvuvz0Dzj/l1uK/TyS1Px2p3z2zz9i/hrX/Pxdfgr8tzqE+
lpc_rms=-49.52
pitch_keycenter=d#4
sample=Violin2Solo_pizzicato_PP_D#4_RR1.opus
</region>

<region>
hikey=d#5
hivel=127
lokey=d5
lovel=1
lpc=KIaIQBvnBMHNX+JAWXYQwI0Clr/+mR1AobcFwCnEgL7MTSFAoE4KwCm0N78ok1ZAIjVSwPK3+D9B202/pQd4Phxdv7sYv3g/40DMv1T3Hz/Aqy8/TYEHvYjtar+Ku0A/
lpc_rms=-48.02
pitch_keycenter=d#5
sample=Violin2Solo_pizzicato_PP_D#5_RR1.opus
</region>

<region>
hikey=d#6
hivel=127
lokey=d6
lovel=1
lpc=8FN+QFao1MAhG6VA99JcwBCOSEBctCLAg0PVP+HO97+HZeM/7H13vpDeLT6baoy/C2DSPy2J3L/Dvp8/RXmSvwQBTT9CV9U9rh1bv4jKzz6R9RO/vhmhP+S3ur9lXQA/
lpc_rms=-51.05
offset=15989
pitch_keycenter=d#6
sample=Violin2Solo_pizzicato_PP_D#6_RR1.opus
</region>

<region>
hikey=f4
hivel=127
lokey=e4
lovel=1
lpc=FDmhQOOCJMEHWB9BJ6/pwCWlUUBnf14/G3a3v6lS0L9gEIZACdySwKfIjkCxkD7AHX6nP8fVub9kbc8/pxpHv+W+JD8dHc6/R1LoP8Q3sL8yVJs/so3dvtYoIj7fTXi+
lpc_rms=-48.24
pitch_keycenter=f4
sample=Violin2Solo_pizzicato_PP_F4_RR1.opus
</region>

<region>
hikey=f5
hivel=127
lokey=e5
lovel=1
lpc=HsWYQPsuCME3p9FAIZFHwODPJr6rhx9A+eftv2kmOz4lh38/cga3v/Y7kD+93Qs+wgy4vfv1Nr+klRk/OooTvr36sT6HeRe/HmeEP9vnqb+Rkuw+DBbwPv1hxz6rnbi+
lpc_rms=-51.86
offset=7958
pitch_keycenter=f5
sample=Violin2Solo_pizzicato_PP_F5_RR1.opus
</region>

<region>
hikey=f6
hivel=127
lokey=e6
lovel=1
lpc=j6mmQHJyDsG7v91A+5MuwOErkD6S5aE/7wsAv2q/RDx+RoA/gOguwOKJOEDI4Im/i0sQvqxvgj/4ju6/R9ErQJNLOMCxGZw9rjHZP2tGg78R6AS/GW1JP7KhPr+4/EI+
lpc_rms=-50.23
offset=14060
pitch_keycenter=f6
sample=Violin2Solo_pizzicato_PP_F6_RR1.opus
</region>

<region>
hivel=127
key=g3
lovel=1
lpc=4IgLQZdUkcF274FBBuoqwcztxkAMZhzAo3mivUBNUL9lZi1A3rP/vz2i5j/OTeG/61ndvi3F6z/wDCe/R4AwPl5Jzz4ascm/I8q6Px6sS78Runa/LGPkP2AQ/789tqQ/
lpc_rms=-53.76
offset=12980
sample=Violin2Solo_pizzicato_PP_G3_RR1.opus
</region>

<region>
hikey=g4
hivel=127
lokey=f#4
lovel=1
lpc=9hHyQOnQacE2uEJBezPAwJ67bD+aKIc/vI2Mv0pNr783TfQ/lLz2vzpODkDGwKe+bcqxv+1XoT818e4+wV9Mv3uCMz2X/pk/YfyJvw5Uhb9XxARArVXcv+kfej7PtwE/
lpc_rms=-50.98
pitch_keycenter=g4
sample=Violin2Solo_pizzicato_PP_G4_RR1.opus
</region>

<region>
hikey=g5
hivel=127
lokey=f#5
lovel=1
lpc=gRN/QNedAcHJsgFBLKaSwDsm+D+gB3u/hR22P6t4D8D6MP8/8RZDv5SS777u+5s/WQ69v1HiGz90UIE+YiKsPpPpnL9RNJA/9OB9v+O2gT9dwI6+kvwUv44mgT5sdCQ+
lpc_rms=-51.86
offset=6470
pitch_keycenter=g5
sample=Violin2Solo_pizzicato_PP_G5_RR1.opus
</region>

<region>
hikey=g6
hivel=127
lokey=f#6
lovel=1
lpc=TiGQQGVK88CetcVABYI5wGCi0z7TDAxAhV2Ivz2wv7/2iqQ/gamIv1Ho3T/1Lw+/73cxv/qjlz7IgZg+B7QewMWtbEBEyCvAYDO0PkI8JD8Nm7S/WCEwP7jD2b0xIEe8
lpc_rms=-51.59
offset=15311
pitch_keycenter=g6
sample=Violin2Solo_pizzicato_PP_G6_RR1.opus
</region>
</group>

<group>
group_label=RR1_85-127
lpc_hicc1=127
lpc_locc1=85
seq_length=4
seq_position=1

<region>
hikey=a3
hivel=127
lokey=g#3
lovel=1
lpc=DNnAQPrUUsHocktBbZIEwaHrmEDZEte/p2dev8htTj+V9Jw/HwTxv2sXhT+ZfAy+s4xPv+vJoT8wxX6/986aP1hrbb9Ntfq9go9Svedasj7vDyO8yU0bPqfyJr8e/Z8+
lpc_rms=-47.62
pitch_keycenter=a3
sample=Violin2Solo_pizzicato_FF_A3_RR1.opus
</region>

<region>
hikey=a4
hivel=127
lokey=g#4
lovel=1
lpc=C1gHQWWOm8GBM5ZBYX0NwXfqvr/EUQZBCZcWwSL4ZkBgtYxAjs8SwZtjHUHvi8PAO1eNvCPShkCOqYrAarMKQNepoj/rE4/AThp4QBuFHj9ajmnAuS0rQC3coL/cnWE/
lpc_rms=-34.25
pitch_keycenter=a4
sample=Violin2Solo_pizzicato_FF_A4_RR1.opus
</region>

<region>
hikey=a5
hivel=127
lokey=g#5
lovel=1
lpc=GsKbQf/CBsIQi9JB1b86wQYuMUANoYs+2df1P/mKrL+T7T5AD1bHwEzLz0CDWb6/GNHJP7XhK8ClGYe/I34PQeAD38Aw0rI/SK8PwMz+5kB9eZHAET09v0ILp0ACRYDA
lpc_rms=-21.53
pitch_keycenter=a5
sample=Violin2Solo_pizzicato_FF_A5_RR1.opus
</region>

<region>
hikey=a6
hivel=127
lokey=g#6
lovel=1
lpc=5w96QEImwcBo84JAvQrRv8Gjt7wyRtc/+BT0v6nS3T+H2cW/tj5qPjQWAEDCGdi/lf/ZP7mETMANYgJAxjXyPqL1sr8KmRpAZYktwOXQuD9Iz6S+SpQcPgV9GT+cyDi/
lpc_rms=-35.05
pitch_keycenter=a6
sample=Violin2Solo_pizzicato_FF_A6_RR1.opus
</region>

<region>
hikey=b3
hivel=127
lokey=a#3
lovel=1
lpc=v6MYQcMNysEy8gBCub3uwYGtukEvH2bBZfW1QNnixb8sxBZAkalcwCpOU0DdCSHAuojoPzycrr8jtsg9b2gCQMA5Y8CF/2BAFDwTwO52pz8AcNe/KbdEQPBxWMBUg84/
lpc_rms=-39.37
pitch_keycenter=b3
sample=Violin2Solo_pizzicato_FF_B3_RR1.opus
</region>

<region>
hikey=b4
hivel=127
lokey=a#4
lovel=1
lpc=wbwCQQ6UpcG5ncFBVVWSwcPqI0E1DULAiNTov6YzB0BYAgg/dx4LwA78VkB5X2vAnhsNQBfRIT/lRzXAhoRzQKV5oMDNX+NAtqD1wL7brkAAOyLAVdldPtlikz+DXDW/
lpc_rms=-33.55
pitch_keycenter=b4
sample=Violin2Solo_pizzicato_FF_B4_RR1.opus
</region>

<region>
hikey=b5
hivel=127
lokey=a#5
lovel=1
lpc=Fhm6QBaTGsEMqAhBsvaYwPBFlj8tFTe+7UyWvRvMxb7mnko/3cUbvgQLKj9VFJa/ozryP9xnGcAdkGFA7pdkwBe3rj9lnQQ/M5OEv4jh4bxHhpM/6Bowv0r/ZT5/eVW/
lpc_rms=-43.65
pitch_keycenter=b5
sample=Violin2Solo_pizzicato_FF_B5_RR1.opus
</region>

<region>
hikey=E7
hivel=127
lokey=a#6
lovel=1
lpc=2cxwQIpnx8C5r11A5RmkPhwphj4+tgHAPZy9P9iPwb8TFvI/xb6Cv5EDhD90eDLAkXHNP04+xT8ofsu/R10Iv1Rmgj8Y4A89krXKvkWCqD/q36C/qZOyvlsPuT/fGlG/
lpc_rms=-48.42
offset=1226
pitch_keycenter=B6
sample=Violin2Solo_pizzicato_FF_B6_RR1.opus
</region>

<region>
hikey=c#4
hivel=127
lokey=c4
lovel=1
lpc=6igRQaOtusGBguFBjIqywWb5MEGW1+m/3VZivy/mbr/aHX1AUP+rwA8pb0CreVm/YjH2Pl9yEMC7wIJAFByQwFG0XEATngvAqCJmPyKzmz4QfOG/ygskQPDvxr+o9Zg+
lpc_rms=-37.36
pitch_keycenter=c#4
sample=Violin2Solo_pizzicato_FF_C#4_RR1.opus
</region>

<region>
hikey=c#5
hivel=127
lokey=c5
lovel=1
lpc=Tl0XQVTAr8EbP7xBdSmBwaA+60AhRRu+lAmsv2zEF8BLEohAny5HwLAYYUD7AYXAt7VjQBusbcCZXodA09YNwCR/lL9xp69A4ZEUwWNHGEEi867ATMSXPwVHjD6AObo+
lpc_rms=-28.92
pitch_keycenter=c#5
sample=Violin2Solo_pizzicato_FF_C#5_RR1.opus
</region>

<region>
hikey=c#6
hivel=127
lokey=c6
lovel=1
lpc=NZvxQOL0PMEdBxJBmEfLwHokdUA2Ev+/QmKtP2T0ML+fFUO+WP1yP+0GD7+9mDQ/mZ/1PRMNdr/HW4s/gR02v5VksT+dZgzAsPIMQLktKL/MjRe/veiGvwnwLr9V7tw/
lpc_rms=-31.59
pitch_keycenter=c#6
sample=Violin2Solo_pizzicato_FF_C#6_RR1.opus
</region>

<region>
hikey=d#4
hivel=127
lokey=d4
lovel=1
lpc=UE58QSuEQcIfqIpCxph7whHZC0LGMynAAhNHwZXpAEEnAWpAJZKKwZxf1kGHzsXBSN9hQTqiib9I6fLAcF33QHcjAcDUX6/AAjU/QVNIYsHe5DNBhm+2wOIxTT8S2w4/
lpc_rms=-32.75
pitch_keycenter=d#4
sample=Violin2Solo_pizzicato_FF_D#4_RR1.opus
</region>

<region>
hikey=d#5
hivel=127
lokey=d5
lovel=1
lpc=DgwBQUZrj8HhZY5BwQMywUTug0AW7mg/a7eqvm0LKMBqgnxAz4eBwNPwpkB9TqHAlU9WQDZ9VL9IPCbAgvyGQAbyDsAyshO+SUHoPzZRdb2+x2DAgWGtQHvYocCwxSVA
lpc_rms=-26.25
pitch_keycenter=d#5
sample=Violin2Solo_pizzicato_FF_D#5_RR1.opus
</region>

<region>
hikey=d#6
hivel=127
lokey=d6
lovel=1
lpc=Ujf2QGv+f8EucnxBrMMkwceVrkDMk5O/B1UtwFpbm0BtK5DACu6dQLWmIsAjOde/KHh4QIFEeMD74oRAk9kewDErRj8tJCI+0k7CP+JUosAx26FAKHWpv83gpL84O6c/
lpc_rms=-31.91
pitch_keycenter=d#6
sample=Violin2Solo_pizzicato_FF_D#6_RR1.opus
</region>

<region>
hikey=f4
hivel=127
lokey=e4
lovel=1
lpc=RXysQeiVsMH7Op1AfO+SwEMnCEBxzi8/6xfcPVruoL4DgNe/QWktvykvCz/3BHe/8yQKwCEsA0DpmYY+nuFov562Gb7TFIw/lv8bPlhjpr6s4AC+oYFzPkWpmD6SHC69
lpc_rms=-64.12
pitch_keycenter=f4
sample=Violin2Solo_pizzicato_FF_F4_RR1.opus
</region>

<region>
hikey=f5
hivel=127
lokey=e5
lovel=1
lpc=2w8XQV4ctMG8GeFBw2nKwQN/gEHqYLHA+GsOQLRLEsADPSdAjdoowJoNDkAJRQHAl2GQQHpE9sCn+xNB0NEHwWFV+UDFCcXA4PCzQPr1fsBxMFg/Xp2BP/Uvkr+PXZs/
lpc_rms=-24.97
pitch_keycenter=f5
sample=Violin2Solo_pizzicato_FF_F5_RR1.opus
</region>

<region>
hikey=f6
hivel=127
lokey=e6
lovel=1
lpc=yQhLQTRbqMFdSmBBLg0/wJCMUcBW1KFAGzgqwDd0lEB6n77ApBqEQJrXT79+9AK/dCdcQCq2bcA3FYZAE64GwCNYJ8DSC9m/lAcIQZwisMD0uDg/AdMtQHUqXMBCPu0/
lpc_rms=-21.69
pitch_keycenter=f6
sample=Violin2Solo_pizzicato_FF_F6_RR1.opus
</region>

<region>
hivel=127
key=g3
lovel=1
lpc=1csGQQVxmsGkPpBB3aYbwV+7kkCLWyfAYFFQP8Js5b6LDSBA6e1xwJLBEUANsdc+cgWRv96zgj6/6VS+h5buP/lZJ8CSwxI/SENkPx28pr7dNpa+tF+gPf5iWr6kzY0+
lpc_rms=-42.26
sample=Violin2Solo_pizzicato_FF_G3_RR1.opus
</region>

<region>
hikey=g4
hivel=127
lokey=f#4
lovel=1
lpc=kFIDQa3Am8HlnadBQX1jwabHaUAH2fxAuH5pwdWCPkEQO4XAhBsuwGjMAEHlqxzBV2TiQMrWDcCo1CPAGsvDQFqqpsDQ2A8/qw0MQKjCtr9QWJ0+ogpxPUuQJr/6CCQ/
lpc_rms=-34.09
pitch_keycenter=g4
sample=Violin2Solo_pizzicato_FF_G4_RR1.opus
</region>

<region>
hikey=g5
hivel=127
lokey=f#5
lovel=1
lpc=cOA+Qd/1t8EwN4dBLAoGwd4ElEDtZmFATI/JwPmuP0DSJ2TA5jcSQE+IYUCRHA3AbQMNvpQNi8CDChBBp2sWwTbRN0F8FRDByQjKPhUVq0BAP6nADstSQKbcKL7CjNu+
lpc_rms=-29.69
pitch_keycenter=g5
sample=Violin2Solo_pizzicato_FF_G5_RR1.opus
</region>

<region>
hikey=g6
hivel=127
lokey=f#6
lovel=1
lpc=7NafQF1yDMHn7rZAgs3RvnVYHcAxanxATytiv00JccD4vXpAKaGZv82x1T5jsL+9IhMFQDo9b8CPcBlAbfW/vxYKsj+ql2I/LRTNvzScsD76dXO8sYC7vg53zj9zu4S/
lpc_rms=-34.95
pitch_keycenter=g6
sample=Violin2Solo_pizzicato_FF_G6_RR1.opus
</region>
</group>

<group>
group_label=RR1_43-84
lpc_hicc1=84
lpc_locc1=43
seq_length=4
seq_position=1

<region>
hikey=a3
hivel=127
lokey=g#3
lovel=1
lpc=2XSkQP/6OsG31U1Bs+IUwUbxsEApoXvAqYYTQNh7Yb9MmPc+RhElv35G6j5Vq+2+DP3aP6TlE8A0vtE/k3oyv4x/yz0exMU+tOkpvzWOyj6tTO++rtU0PxZj17548V89
lpc_rms=-52.32
pitch_keycenter=a3
sample=Violin2Solo_pizzicato_MF_A3_RR1.opus
</region>

<region>
hikey=a4
hivel=127
lokey=g#4
lovel=1
lpc=4p0RQd8OtsG3DM1BccuLwWAduUAQW4BABS7cwGgMdEAatIC+kZS1vxz+6T/1LWO/SgelPwUpdMCWtNJAMSP4wGtw90DPQcTALZCAQM+kGMCAZRg/qwNCPxuDmr8LP0w/
lpc_rms=-32.74
pitch_keycenter=a4
sample=Violin2Solo_pizzicato_MF_A4_RR1.opus
</region>

<region>
hikey=a5
hivel=127
lokey=g#5
lovel=1
lpc=BpLdQDB5M8Fp/xFB4KuTwFd4cj92F0hA8FXdv7o62L+IdiFAQAomwESCiEA++4S/fOMYwKYSV0AhcB/AEHhaP342gEA/NIHA96c/P79UgD/XwMi/S1VkQKNA67+w/yE9
lpc_rms=-26.48
pitch_keycenter=a5
sample=Violin2Solo_pizzicato_MF_A5_RR1.opus
</region>

<region>
hikey=a6
hivel=127
lokey=g#6
lovel=1
lpc=hdinQFWTEMG28/hAnsGGwMbIYEDcodS/UvolP+qMNjuDTh+/Kz1qP2w0DEDraknAiNwRQMnGf8AZI7tAXqiBwDntHkBuQM+/MaX2PT1dGD+HDqE+tvcXP3r2w79ghHI/
lpc_rms=-35.12
pitch_keycenter=a6
sample=Violin2Solo_pizzicato_MF_A6_RR1.opus
</region>

<region>
hikey=b3
hivel=127
lokey=a#3
lovel=1
lpc=uA4AQV4ekcFotZZBx2hZwfdtCkH8xdPAfQOxQOh9kMA1JC5ANDCov3SsYj/5nZi+nRI4P9Wi3757KCK/DrH4PxQEAMAXrWI/tCGMvxQoZz/xt3e/BdT3P5gyKsAk0Mc/
lpc_rms=-44.31
pitch_keycenter=b3
sample=Violin2Solo_pizzicato_MF_B3_RR1.opus
</region>

<region>
hikey=b4
hivel=127
lokey=a#4
lovel=1
lpc=lMztQOY2j8GfE51BCI9IweOXS0DzdzJAesESwN1fKsBA8tBAkb+QwNwudL+JB7dAebrDwJpiWUBBNnG/cqzCvo8HgT/L08m/AbYVQAZ5OcD/QTJAEp36v/+Jyj8lqES/
lpc_rms=-33.98
pitch_keycenter=b4
sample=Violin2Solo_pizzicato_MF_B4_RR1.opus
</region>

<region>
hikey=b5
hivel=127
lokey=a#5
lovel=1
lpc=UsRMQdJ/kcG7EgJBjqtRP7dux8C1vQRBEmaTP9XYEsH1N+dA+6OrwKCGrz9Wvs9AWA2PwGndJUADfOi/eVObwPhl+EBtLkbApU5cPzDcgECmNRTBoF6VQNXt1z7EuYy/
lpc_rms=-27.14
pitch_keycenter=b5
sample=Violin2Solo_pizzicato_MF_B5_RR1.opus
</region>

<region>
hikey=E7
hivel=127
lokey=a#6
lovel=1
lpc=nbizQNIMMcHiJTFBJDzLwBy9YkAQJEnAD4ZKQOv5I8BpIvw/NbYEwE8GMkDP4ajAGpKQQBOc3L/So4o+9ohxvuKmGL/nqvY/lycqwNgVDkBk9ce+wYXvv3lSHUD965i/
lpc_rms=-49.44
offset=11384
pitch_keycenter=B6
sample=Violin2Solo_pizzicato_MF_B6_RR1.opus
</region>

<region>
hikey=c#4
hivel=127
lokey=c4
lovel=1
lpc=8iFZQYxrDMLtlCpCIUD8wUW+U0HiD/y/Pz63vWNOHMC4vCxA186Lv0sigb9JoQVABsFSv3qE4b/gUqFAflOcwIFAAkB0CrO/GWsJQC6lyr/UXbu9hzK3P/4NEMCamsc/
lpc_rms=-44.15
pitch_keycenter=c#4
sample=Violin2Solo_pizzicato_MF_C#4_RR1.opus
</region>

<region>
hikey=c#5
hivel=127
lokey=c5
lovel=1
lpc=YAW9QK2vTsE0VVJBdsHowN8QAD5zA5VAzdCxwFcEbUBgvxXAG6FGQAdLhMBp2VtABrzrvmR04b/qHTpAWJhFwGulJUBNaY2/wvgFPpUGbT7vMeS/28VsQMR1hcAcQQ9A
lpc_rms=-37.34
pitch_keycenter=c#5
sample=Violin2Solo_pizzicato_MF_C#5_RR1.opus
</region>

<region>
hikey=c#6
hivel=127
lokey=c6
lovel=1
lpc=5TvKQKNHC8G4q4ZAXCRwv54zmb9ZJB1AwtaJvzThkL7D0Di+4CHjP/mAlr9UoMy9kMi3PxrF6r8LAgdABYalvy12ST6dRIY/mPxYv86f0z4KRkK/sLQmwNyKZkDq/xq/
lpc_rms=-32.14
pitch_keycenter=c#6
sample=Violin2Solo_pizzicato_MF_C#6_RR1.opus
</region>

<region>
hikey=d#4
hivel=127
lokey=d4
lovel=1
lpc=nKMuQY009sH16h5C3GEBwjPpm0E6DCHB10rEQHMQxMBAO+BAQ97SwIaQsEAHsb7A5yoIQcgIMMHh3l9BMoSJwQERgEF+TCLB0OqpQG1PtsDZQgpByxEQwSq4vkD6huu/
lpc_rms=-38.91
pitch_keycenter=d#4
sample=Violin2Solo_pizzicato_MF_D#4_RR1.opus
</region>

<region>
hikey=d#5
hivel=127
lokey=d5
lovel=1
lpc=/O0fQSUmvcHtINlBg3WfwcrJ+EAGMI1AynkswTiOJEFZZyLAqlvwwBiWVEHmfEPB+bj0QNOOKr9p6K7AW3K8QMm7G8CSeG69B0OsPzlzfb8sUQg8AG/0PsCo2b+Lcdc/
lpc_rms=-31.14
pitch_keycenter=d#5
sample=Violin2Solo_pizzicato_MF_D#5_RR1.opus
</region>

<region>
hikey=d#6
hivel=127
lokey=d6
lovel=1
lpc=ryBDQBXdUsA27t0/4QSwv9OVFT8xdew9sv2pPv/LXr/gbog/5wwvv/NQyz4vJpQ+Lyp7vnXIJj+Jswu/hv0IPzIak75JP0s/IHhsv55mg7/Au5I/LkrNvjD7TD/UI1a+
lpc_rms=-35.54
pitch_keycenter=d#6
sample=Violin2Solo_pizzicato_MF_D#6_RR1.opus
</region>

<region>
hikey=f4
hivel=127
lokey=e4
lovel=1
lpc=Whb6QLlGjsHonaFBWoaHwdzNLEGUopXAz5uRP7IaBb9MMCK/iLcaP6ohD0CfDY/AHOehQG1/ccAxTcM/eaXhvvIVzT8r7si/LAzLP4B3EsAkP9M/5+sAv4uxp72GUrG9
lpc_rms=-42.34
pitch_keycenter=f4
sample=Violin2Solo_pizzicato_MF_F4_RR1.opus
</region>

<region>
hikey=f5
hivel=127
lokey=e5
lovel=1
lpc=Gwn6QJNtisHMXJ1B0ftlwfV48kDdD3/AH/KXQFAx0sC8CedAkEq7wOe1fkCI5Fm/9w0Mv9UAND9v/pA+UiuHv5F8dT9Uyjk/dswXwIWWY0DOhXPAoH6CQNzOLsAIxrQ/
lpc_rms=-30.91
pitch_keycenter=f5
sample=Violin2Solo_pizzicato_MF_F5_RR1.opus
</region>

<region>
hikey=f6
hivel=127
lokey=e6
lovel=1
lpc=bsW1QOMy5MDz+6E/Nsn5P1kRxb9QfJ0+WdECQBWLvb9/00W/qGEJQP2T+7+vXGs/T4dHP7Phor/mjps/LwApP3vTOcAcJVO/NLSDQDiKCMDkDSI/Wod4Pp78b796nCU/
lpc_rms=-35.57
pitch_keycenter=f6
sample=Violin2Solo_pizzicato_MF_F6_RR1.opus
</region>

<region>
hivel=127
key=g3
lovel=1
lpc=gX0JQSZ9pcH6bcNBa+apwaCxaEGHLsjAnwbNvXegqz+vbs4+ICRRvz3q5D7IKwy/J2BbPze1N78SObM/hMXLvl//I8ApBixAg6HiPrqtKsDczRVAatoNwLpOsz9Abj++
lpc_rms=-43.49
offset=62258
sample=Violin2Solo_pizzicato_MF_G3_RR1.opus
</region>

<region>
hikey=g4
hivel=127
lokey=f#4
lovel=1
lpc=Gqj1QEJrg8EHxHtBzLQGwbL5jb+ZJ95AEWzRwB+xDkDgiglA+7OuwDagwUAxx2zAwIQGQJkGtL7hyDA+h75kvwzDvj83gwDAaEkJQHT8Er8lFyfASu9zQCiiZ8De0fs/
lpc_rms=-36.46
pitch_keycenter=g4
sample=Violin2Solo_pizzicato_MF_G4_RR1.opus
</region>

<region>
hikey=g5
hivel=127
lokey=f#5
lovel=1
lpc=ffj6QAyficFrJ4hBM4omwWzlf0DvLFRABJbKwLHZ5T9PFJpAJTERwbx9PUFo2wbBwDVbP6kljkCr6tPALJbrQPawncCxO8c/hoedPtTlLj+neKq/FM+dP8Pqb7/3TE4/
lpc_rms=-34.06
pitch_keycenter=g5
sample=Violin2Solo_pizzicato_MF_G5_RR1.opus
</region>

<region>
hikey=g6
hivel=127
lokey=f#6
lovel=1
lpc=vTqbQPKdD8FBeBZBuyfbwN/1XkBxnO2+crqNP4hBXcB3G1pAiddOwNzQQEC1CcS/rWUjP5M/hr91f0g/nCtDwI8NtkAiMbvAHqx8QOMDCcBI0FI/YQSCv0GuyT8TJyu/
lpc_rms=-42.28
offset=1775
pitch_keycenter=g6
sample=Violin2Solo_pizzicato_MF_G6_RR1.opus
</region>
</group>

<group>
group_label=RR2_0-42
lpc_hicc1=42
lpc_locc1=0
seq_length=4
seq_position=2

<region>
hikey=a3
hivel=127
lokey=g#3
lovel=1
lpc=/u2yQK35ScHKhFtBKJgDwY/IDkCqyxi+6OxYPwE7PcD7+WpAIrQzwDy1xT+2Ow3AnuJbQO8xT8DktdI/1NYrvvI2/r6MkTY/wu2vvsL4mb4JnQ0/X0pkvqNZGT9H+bq+
lpc_rms=-55.05
pitch_keycenter=a3
sample=Violin2Solo_pizzicato_PP_A3_RR2.opus
</region>

<region>
hikey=a4
hivel=127
lokey=g#4
lovel=1
lpc=rmgFQXJNqMGWpcZBkjqEwS6vZ0AgI5RAWt2rwLzy1T9oDbo/RJZjwKHsj0AOiSnA+ZASviyDzT+FB4a+j/QGwNVdfkCyl6HAETLqQDQ2E8Eq2thAjISiv/DSMMA8jgdA
lpc_rms=-37.21
pitch_keycenter=a4
sample=Violin2Solo_pizzicato_PP_A4_RR2.opus
</region>

<region>
hikey=a5
hivel=127
lokey=g#5
lovel=1
lpc=Hf+RQBD7BMEi3gFBJ13XwOqui0DJCiO/adMhv2/EKz6k8K6/27uAP9du+D+3FTTAvOYzQEWWacB5uj1A9hTPv1UzB0BwzgK/4jMiwM/5KEApYue/tesCQGNVXL+cnAG/
lpc_rms=-45.75
pitch_keycenter=a5
sample=Violin2Solo_pizzicato_PP_A5_RR2.opus
</region>

<region>
hikey=a6
hivel=127
lokey=g#6
lovel=1
lpc=HwSCQNGI9sDT6+ZAWn+TwEJHNUA5KLe+ot7av4w0yz9asG68ZEgBwIb4YUColk/A8c44QPHUYsAD9PI/9eg1PwPX7b+mJes/6eISwM3F/T+Swj+/G+HQvjuJaT9O/Ay/
lpc_rms=-49.84
offset=15092
pitch_keycenter=a6
sample=Violin2Solo_pizzicato_PP_A6_RR2.opus
</region>

<region>
hikey=b3
hivel=127
lokey=a#3
lovel=1
lpc=x+8bQdLFu8FclstB9ZGNwYxREUHg1p/A9qY+QKIyyL+cnZc/u15qv9t5q70Q5t8/KL1+v+PYtL9/xeY/geJ6P5ctLcCUHY4/Gd0fvfaUmT5vL6u/JnbyP8QCyb+LAjM/
lpc_rms=-46.74
pitch_keycenter=b3
sample=Violin2Solo_pizzicato_PP_B3_RR2.opus
</region>

<region>
hikey=b4
hivel=127
lokey=a#4
lovel=1
lpc=95HaQHAkZcHp52FB8ngeweNhiUD4FQ+/GQZpP+9qasAzxY1A/c8dwORIhT8QeEw/Aechvz+hEL8SbLi4uyvFP6o1HsA4US5AhCEhwBVi4T/aMhbAnA5cQJ/SL8DyIo0/
lpc_rms=-40.26
pitch_keycenter=b4
sample=Violin2Solo_pizzicato_PP_B4_RR2.opus
</region>

<region>
hikey=b5
hivel=127
lokey=a#5
lovel=1
lpc=zAfmQH+rQcEA+hZBwLKKwENpTT9dGBZAr+dSwAyWgD+pdKw/EpURwHt9OkAvhWTAFP9ZQE7WPcC5WmZAfOQvwMnmBL94RiJA2JUqwIHKfkBH43vAoQFBP5EXrz/ddf6/
lpc_rms=-48.20
pitch_keycenter=b5
sample=Violin2Solo_pizzicato_PP_B5_RR2.opus
</region>

<region>
hikey=E7
hivel=127
lokey=a#6
lovel=1
lpc=HW2RQJVVDcH3gflA9XZ0wMxzLECu7e+/AxbIPrtAgr8mkElANryCwEVuXkD5vgbAdWWnPpMkEj/pca49Eq/Cv1toHUCcJifA3xwUQGf9h78OEHW+KQw9vsgCgj8O1lO/
lpc_rms=-45.56
offset=10108
pitch_keycenter=B6
sample=Violin2Solo_pizzicato_PP_B6_RR2.opus
</region>

<region>
hikey=c#4
hivel=127
lokey=c4
lovel=1
lpc=1fwXQcQTocGilYtBLmL8wMZ7KEDiqYXAHnetQNf8wcDsOvJAnpX+wP36nUCN4Wi/N3imv1cCW0BGVKLA/EqhQLSdjsDRWRZAaM25Pprkqj+OTqfAxxnhQA2UnMCfxa8/
lpc_rms=-45.07
pitch_keycenter=c#4
sample=Violin2Solo_pizzicato_PP_C#4_RR2.opus
</region>

<region>
hikey=c#5
hivel=127
lokey=c5
lovel=1
lpc=CSjQQJWUWsGCEU9BktvswPgB4T8+qQFAs5O/v8SHQcAvY9FACeXgwK0srkDpMgHApjGHv3pQRED6zV7AghInQATy+768Qza/JJVTP1D4qr7qMf6/DxGOQFNPjsAi4g1A
lpc_rms=-49.77
offset=11893
pitch_keycenter=c#5
sample=Violin2Solo_pizzicato_PP_C#5_RR2.opus
</region>

<region>
hikey=c#6
hivel=127
lokey=c6
lovel=1
lpc=WRLGQKFjK8E0NCpBsuzTwJZVQEBKUoC/iuF5P93xV8Bh/3JAJldBwNikb0DljFHAv2wPQNJ49L/CxxZAgRsjwETDIUBf1jXABLWnP0gX+L4bhko/Byg9wD3AHEC6D5y/
lpc_rms=-47.04
offset=13650
pitch_keycenter=c#6
sample=Violin2Solo_pizzicato_PP_C#6_RR2.opus
</region>

<region>
hikey=d#4
hivel=127
lokey=d4
lovel=1
lpc=59vTQLCScMEhEX9BntQfwebZoECsiTfAfwvIPhQLCMAjfM9AbOzSwOtZIUDINR09FWXWP2OmYMACVmlAXQ5ewGBMKUBzDc6//zNRPtpjDj79OgY+ixWWPqtNyL6i2JE+
lpc_rms=-50.20
pitch_keycenter=d#4
sample=Violin2Solo_pizzicato_PP_D#4_RR2.opus
</region>

<region>
hikey=d#5
hivel=127
lokey=d5
lovel=1
lpc=Z/25QOxyGcGqSrlA8h0FwPArWD/8/pO/kyfMPw3CaL7VOTu/3gyIP4FL6L654aM/vuAiwKTo3z/o22S/l1ejP+UCXb+ego8/YuXCv3BjRD85VZy/4fwfQGQi4r8Fvkw/
lpc_rms=-39.97
pitch_keycenter=d#5
sample=Violin2Solo_pizzicato_PP_D#5_RR2.opus
</region>

<region>
hikey=d#6
hivel=127
lokey=d6
lovel=1
lpc=3QlRQMFTj8B9fHxAG9bpv6KwAD02Q2Y/4HufvwU7oz2JAyI/DbcMvrOgLD1/C9+9g6vZPsdsJr/y3MY+5wqxPPDmK79OGHE/ChDivpauu791/RFASt4JwBweiD+WEvC+
lpc_rms=-49.47
offset=6696
pitch_keycenter=d#6
sample=Violin2Solo_pizzicato_PP_D#6_RR2.opus
</region>

<region>
hikey=f4
hivel=127
lokey=e4
lovel=1
lpc=ydQMQUghjsGfBY5BrKMuwc6aokCatYfAb/JeQDKoPcCahXs+A0IlQGXVX8ACzRBAy1+xv7tD2D/1FznAYYNwQNlqRcDT+BJAEVSdv7BUxz7R15O8G24NPo19Dj9A1xu+
lpc_rms=-43.66
pitch_keycenter=f4
sample=Violin2Solo_pizzicato_PP_F4_RR2.opus
</region>

<region>
hikey=f5
hivel=127
lokey=e5
lovel=1
lpc=mgxrQFoFhcC4DyxA7m/gvwLuiz4r1hE/ewauPd/Tor8FosQ/PnOAv7utdT+pvCs/psSLv5I+tz9pGFe/yhDKPnhnmD1ITBq/4l4qvu5boT/03Jq/stC3P34Xa7+HRV0/
lpc_rms=-40.31
pitch_keycenter=f5
sample=Violin2Solo_pizzicato_PP_F5_RR2.opus
</region>

<region>
hikey=f6
hivel=127
lokey=e6
lovel=1
lpc=HYJ4QCU/2cC8+MtAn3t4wB7N9T/wGDM/7asLwA71IkDRu4y/9TBEv0wnmD/3wUK+ef4Fv41xfj9F62a/vDZtP8/KRr/DirC/YEcqQBQF9r+r54Q/ztW/vx6Tgz/Zz/++
lpc_rms=-52.51
offset=13167
pitch_keycenter=f6
sample=Violin2Solo_pizzicato_PP_F6_RR2.opus
</region>

<region>
hivel=127
key=g3
lovel=1
lpc=qT6sQJ8VOsGpSy9Bh5bRwMdYXEC18+S/HVNpP/8rmL/qjLk/s/uRv6foCD9mDXM+xJ5tvxxKWD+NuzY9Rg/ZvpulZD79MQw+H3YLv2n9Dj/z7we/fbucP7d6x7+lUiE/
lpc_rms=-57.35
offset=12109
sample=Violin2Solo_pizzicato_PP_G3_RR2.opus
</region>

<region>
hikey=g4
hivel=127
lokey=f#4
lovel=1
lpc=n2qAQAsEAsG74gNBt5qpwAp38D/eaa09CU4av+O/Nb57b5A/5bMPwCCqHUDHMq+/isWgvvI3kD9uwWS/tqkBP9bLCr6HMzs+7oKYvuK1qz1nLnO+z9kvP0vCUL9fHQg/
lpc_rms=-50.84
pitch_keycenter=g4
sample=Violin2Solo_pizzicato_PP_G4_RR2.opus
</region>

<region>
hikey=g5
hivel=127
lokey=f#5
lovel=1
lpc=n59NQOWLc8CjYMo/YuW+vnYygL5/XMc9BaiMPhYVuL7teC0+tN6aPoTyZb6nbqk/8HeGvxUKgjuh2Ao+yJb8vr8w9z4iZqK+qeBsvINDHj/+v1o/IVG/v3CPjD8FJvC+
lpc_rms=-41.58
pitch_keycenter=g5
sample=Violin2Solo_pizzicato_PP_G5_RR2.opus
</region>

<region>
hikey=g6
hivel=127
lokey=f#6
lovel=1
lpc=AZOhQD+YGMGiWAhBVVmiwMCq+j+EeOc/RkARwB6ZOT/E9Sm/YGWav58raEBgoDjAWYUEQN0tL8Ajs/s/XxLuvy73A0DorGW/VbDDvlKbLj5/bFy/UbqCPy3hF79LHjI+
lpc_rms=-50.00
pitch_keycenter=g6
sample=Violin2Solo_pizzicato_PP_G6_RR2.opus
</region>
</group>

<group>
group_label=RR2_85-127
lpc_hicc1=127
lpc_locc1=85
seq_length=4
seq_position=2

<region>
hikey=a3
hivel=127
lokey=g#3
lovel=1
lpc=9Z7HQHgvVMEdHEpB72gLwSPwnUDTF7u/M9Q4vxYc2z6TmvU/VNhywARSjEDDlXbAfqfVP9Mjiz+aHNu/cdwlPtU7KT/gHpG/XgX7P7Yslb9dLyq/pvhGPzxEer6InEQ9
lpc_rms=-49.42
pitch_keycenter=a3
sample=Violin2Solo_pizzicato_FF_A3_RR2.opus
</region>

<region>
hikey=a4
hivel=127
lokey=g#4
lovel=1
lpc=8WAXQRoctMF6n8FBN39swTDPOT/LOyZBXVpIwRhl6EC0Hp0+X63IwAIPGEF2SxzBnPACQeCqrsDmldc/g3L0PzlfT8A53xhAqYvAv5cJL0DRIpDArzRoQBa03b+bzXo/
lpc_rms=-33.86
pitch_keycenter=a4
sample=Violin2Solo_pizzicato_FF_A4_RR2.opus
</region>

<region>
hikey=a5
hivel=127
lokey=g#5
lovel=1
lpc=ugmNQQOMBsKfpfRBeK6bwTNiGEEJC1fAANjxPrV8K0Dj017AIw+xv1UFf0BZELa/Bor7PzcseMCIaD5AYwA7QJtVfsDcwPq+opaju6MwM0DQ96q/ka0qwHTYw0AgU6HA
lpc_rms=-18.78
pitch_keycenter=a5
sample=Violin2Solo_pizzicato_FF_A5_RR2.opus
</region>

<region>
hikey=a6
hivel=127
lokey=g#6
lovel=1
lpc=LYCtQA9NF8Hc+ftAFc5IwAIbkT95EP89qCWrPtxjlb8/K9U/ERGzvx1XJUDB4a6/fSwDPyLXyL+2x7E/qCNPP/I5rb+Gd9k/Ow73v7BGnj/wv6O81P0jP3ThKL/3nmE+
lpc_rms=-26.80
pitch_keycenter=a6
sample=Violin2Solo_pizzicato_FF_A6_RR2.opus
</region>

<region>
hikey=b3
hivel=127
lokey=a#3
lovel=1
lpc=2oonQYG70sE+De1Bjdiewb9T10AFnwJALx+LwDezAUCcPQBAYEJNwI2/LUD8HkTAjWWUQHNnjcDHbi4/fFIiQMAQHsCQMXm/0H2EQL0WFMAPDBPA1QiFQGt3MMDHTIE/
lpc_rms=-40.40
pitch_keycenter=b3
sample=Violin2Solo_pizzicato_FF_B3_RR2.opus
</region>

<region>
hikey=b4
hivel=127
lokey=a#4
lovel=1
lpc=bGqwQLiAQ8FEyUNBwzLmwBnFO0C09Jy/lapIP4yICr30uIe/VV0OQHw4G8AnKe8/qnwivzA/uz4ycJ+/Fbz2P8eSub8iEfo+orPiPUITxT4ys0W/rxuevnbIoT8Nzim/
lpc_rms=-28.54
pitch_keycenter=b4
sample=Violin2Solo_pizzicato_FF_B4_RR2.opus
</region>

<region>
hikey=b5
hivel=127
lokey=a#5
lovel=1
lpc=GaI1Qd/gk8EKFD9BIhEJwC/Vsr8vpnw/tt01P8YlSr/OPv2+5QQxQMuUGMC24wdAVFKhwKFD9EDD15LAJtu3P2+0Uz1UaTK+hmpKP6INIMAXlZdAdbtGwOBaJL92Ky29
lpc_rms=-26.84
pitch_keycenter=b5
sample=Violin2Solo_pizzicato_FF_B5_RR2.opus
</region>

<region>
hikey=E7
hivel=127
lokey=a#6
lovel=1
lpc=6/VlQE2vnMDhkMk/RObjPz3L9r/1Geo+JCCoPxgSXb/1gl8+wqJ/vxYIIEBAjP+/ipaUv8SyPUBeSoa/cDRMvypZij/9SgK9lFFhv+2RHD9nlVA/hg8xv4wDAL/tLwo/
lpc_rms=-36.83
offset=1173
pitch_keycenter=B6
sample=Violin2Solo_pizzicato_FF_B6_RR2.opus
</region>

<region>
hikey=c#4
hivel=127
lokey=c4
lovel=1
lpc=LSYbQbOwxcG6dttBPpmFwSG3A0Cm+8BA23tfwHlbMcDnnMdAkrzGwCHVe0DOUWe/4k5Iv45RgD8IzwE/7GYWwPRKvz+99Bg/4wa5v2Bp1z1PmwZAZRMowFyB6z9Y2TK/
lpc_rms=-36.34
pitch_keycenter=c#4
sample=Violin2Solo_pizzicato_FF_C#4_RR2.opus
</region>

<region>
hikey=c#5
hivel=127
lokey=c5
lovel=1
lpc=PXrwQBqIj8GrFqdBxTCDwShdF0HIeE3ATOWTPUFepr6l8/A/I+BDwPNluECRRgvBKysCQbB1n8CtwiRAirKTv2sNFz6cxgBA+eyQwGlPukBCvI/Ay/zfPyTI7b1IBJQ+
lpc_rms=-28.90
pitch_keycenter=c#5
sample=Violin2Solo_pizzicato_FF_C#5_RR2.opus
</region>

<region>
hikey=c#6
hivel=127
lokey=c6
lovel=1
lpc=yiw0QeddtcH0oZBBraSawN3uNsBEzzpAPfDHvopNB8CyaI1AD0CswF9qvEALgojAZhO7P9lrOb+hwZBAEmoGwWN99UBLRVrAd2DpPhjoMb2DvwhAQnHswMkrz0DqSsa/
lpc_rms=-27.54
pitch_keycenter=c#6
sample=Violin2Solo_pizzicato_FF_C#6_RR2.opus
</region>

<region>
hikey=d#4
hivel=127
lokey=d4
lovel=1
lpc=6jNYQUp4KsJkgH9CG+FrwkpE+EEIHEW/KQMxwaIHmkAl3NFAjtZ4wUf9nUH9KIXB2sbgQGwWi0CpaCzBfZoTQUv3VcDiLArAshrPQLNfEMHQdQZBu9mawMahTz9T7f8+
lpc_rms=-33.06
pitch_keycenter=d#4
sample=Violin2Solo_pizzicato_FF_D#4_RR2.opus
</region>

<region>
hikey=d#5
hivel=127
lokey=d5
lovel=1
lpc=Q1rmQPwEhMHZRYdBWzExwbzbu0CGr+m/4faUP2UbG8Bz+PU/J+t+vxhwxz/x+9G/7PUIQL+AGcAqKQg/h8a4P78ztL8ko/0/uNpOwIJymkBjn8HAKxG8QDqgZ8AFj6I/
lpc_rms=-27.55
pitch_keycenter=d#5
sample=Violin2Solo_pizzicato_FF_D#5_RR2.opus
</region>

<region>
hikey=d#6
hivel=127
lokey=d6
lovel=1
lpc=RMnwQFBCUMFu5wJB5V8lv3990L9hacc/KBIcwHRlMUAxska9M9W8vE4qPT5JrNO/DmINQEM7Xb+DPRo/hznJvvjLJD+R7qs+QOeqP6qr0MB2uuVAIGLQv2s4HMC2CgVA
lpc_rms=-28.84
pitch_keycenter=d#6
sample=Violin2Solo_pizzicato_FF_D#6_RR2.opus
</region>

<region>
hikey=f4
hivel=127
lokey=e4
lovel=1
lpc=oUwTQSPkrsHTjadBtYgRwWOaDMAZXhBBhbkFwYja9T9jFGNANf+OwNq8P0DBJke8VYgswMV1VkC91i7Ay6LTP5aUej+ywV3A0UhYQJ+kZL9OVZ49IwsMwIEKO0ASEm6/
lpc_rms=-38.34
pitch_keycenter=f4
sample=Violin2Solo_pizzicato_FF_F4_RR2.opus
</region>

<region>
hikey=f5
hivel=127
lokey=e5
lovel=1
lpc=o2B7QciAJMIL1ltCZyFQwsflG0JcAKnByGYnQc2qu8D/gntAGvCPwEC9nUC2GzTAqXlBQKC6gsC+LqNAxcJbv6TQBMEWO3BBs9phweQJUkFkNEXByLM+QcZ6JMFO2ahA
lpc_rms=-23.44
pitch_keycenter=f5
sample=Violin2Solo_pizzicato_FF_F5_RR2.opus
</region>

<region>
hikey=f6
hivel=127
lokey=e6
lovel=1
lpc=ne4YQSViasHvrRlB+mEtwJzBqL8YuVNAxm5/v52bGT9hddc+aQ6Kv6/i9D/RQaK/J1a/P+gCnj5AtGW/Ps8gQKQwIsB7yG7AKxXiQAPvO8C9fF6+sHX7P+e5CMByHpY/
lpc_rms=-20.10
pitch_keycenter=f6
sample=Violin2Solo_pizzicato_FF_F6_RR2.opus
</region>

<region>
hivel=127
key=g3
lovel=1
lpc=Yko3QY2q3cEtUtBBnTQUwSyFf8Cee+VABaKBwNWUh79hp7FAtLDDwP6QfUBxrSC/d/MUP7sLacAFNeQ/+RiNQAt3j8B1Q9K+vxwJQKpx/b+jAPE/3gHiPu60BMA7o5M/
lpc_rms=-43.51
sample=Violin2Solo_pizzicato_FF_G3_RR2.opus
</region>

<region>
hikey=g4
hivel=127
lokey=f#4
lovel=1
lpc=xEjtQLrqhcHJD35BwYIBwd31tb5HBPlAWuQqwaGgxECcc3g/VPivwDaD+UCIvu3AdGp5QNq4Fj8fv2LA2HeeQFt4XMBej5W+qj4HQLAaZr/fQzo+y9divwKlCj/q5Ck+
lpc_rms=-34.35
pitch_keycenter=g4
sample=Violin2Solo_pizzicato_FF_G4_RR2.opus
</region>

<region>
hikey=g5
hivel=127
lokey=f#5
lovel=1
lpc=/doZQZBbnMFwiKBBSTlvwWPLHEEmYYvAnSqGQP3rlMAhK04/j/kxQH5lh79XxNG/T2e7QNGc4sC4B6tAcPB9wM32nUDpEHrAVv2jQBOy3sBsFf1AcloCwalPx0BMdqe/
lpc_rms=-25.10
pitch_keycenter=g5
sample=Violin2Solo_pizzicato_FF_G5_RR2.opus
</region>

<region>
hikey=g6
hivel=127
lokey=f#6
lovel=1
lpc=NMCcQFSXDMFYZddAuZ1vwGpskkDW+FrAR6q8P98Y3r966gxAlCCOvo+T+L4v8ec+kLmHvvy/Tj96khq+npDsv+hUJUCjPmO/YMwvP5Jgir8XLZs+K+UUP15FQL6KXp49
lpc_rms=-35.31
offset=2694
pitch_keycenter=g6
sample=Violin2Solo_pizzicato_FF_G6_RR2.opus
</region>
</group>

<group>
group_label=RR2_43-84
lpc_hicc1=84
lpc_locc1=43
seq_length=4
seq_position=2

<region>
hikey=a3
hivel=127
lokey=g#3
lovel=1
lpc=Yb+7QAiCVcHCEV5BQmUKwfbyLUAG7vu+tKe1P+hvGMBZh9U/BefovjyTAD/1+wm/a5KmvkGLdT+EL4u/AgjBP1cwA8A/Oeo/kI8Kvx0elr9jcAFAHezovyJMgz+8o0q+
lpc_rms=-50.63
pitch_keycenter=a3
sample=Violin2Solo_pizzicato_MF_A3_RR2.opus
</region>

<region>
hikey=a4
hivel=127
lokey=g#4
lovel=1
lpc=vt4VQb0UxME8cu9BoCq3wX7FM0HhZ7C/i8BMwI7jBEBRDtE/6WqRwMi3AEFFsD7BcrZaQbUnOcG0YP5AtNSHwG8i2z8yH6m/C81CQNc5csARIgZA9W3HvIkVrb8udJI/
lpc_rms=-33.12
pitch_keycenter=a4
sample=Violin2Solo_pizzicato_MF_A4_RR2.opus
</region>

<region>
hikey=a5
hivel=127
lokey=g#5
lovel=1
lpc=nnQ/QYyppMHibWZBwmeTwDIdkcBdLBRB6oVZwOn9U8Aq/BpAkcI+QNrji8BVypFAAOg9wKW9tL96ThhAQpAcwAat10CwgbDA7JczQAxSO8ARsME/pFnfP0ISAcD1inY8
lpc_rms=-28.38
pitch_keycenter=a5
sample=Violin2Solo_pizzicato_MF_A5_RR2.opus
</region>

<region>
hikey=a6
hivel=127
lokey=g#6
lovel=1
lpc=GcxhQBri2cD7Tt1AUkiYwACvEkBIFw0+389IvxDbF76VKy8/uMEIvyy7ID/Niwy9D904vjl7q79uMQdAxC27v7BnpT8gj8a/MtaLP+wdML9oQzM/GuPtvj1TWz5w3xK+
lpc_rms=-40.23
pitch_keycenter=a6
sample=Violin2Solo_pizzicato_MF_A6_RR2.opus
</region>

<region>
hikey=b3
hivel=127
lokey=a#3
lovel=1
lpc=zIULQYo8tcE+UdtBGRK0wWh0Y0H0wJzAFt2vvqkhgr+b6kFAZWqrwAcNDkH+6hfB5ZXqQIx2bsBzu9A9x3WKP26b4D5zhR3AXAB6QJC1p8Bt+NJAy+PmwOuGnkCofLK/
lpc_rms=-40.07
pitch_keycenter=b3
sample=Violin2Solo_pizzicato_MF_B3_RR2.opus
</region>

<region>
hikey=b4
hivel=127
lokey=a#4
lovel=1
lpc=S0evQP0CRMEvtVJBF/MVwVrsrkC/0kvAfAi4P7Khnr/qR/4/P2MBwD3k6z8SSsC/e/QIQOWZBcCXo3E/QvHfvDO6Zr4k9ps/EnIhwLfQEkB5OM+/M1e9P3daib/i5M4+
lpc_rms=-41.40
pitch_keycenter=b4
sample=Violin2Solo_pizzicato_MF_B4_RR2.opus
</region>

<region>
hikey=b5
hivel=127
lokey=a#5
lovel=1
lpc=dZaAQO/tqMDH7m1A4WQtwFGFBUCFCKW/8mLKP+MNEcD9EwRA0Ak0wKL0MED65xTA6uRaQErxRsDSIglAxa0ewKgwN0DOTQPAw5TkP66lvL8XuyE/YMaPv5t+nj+BwZq/
lpc_rms=-43.47
offset=318
pitch_keycenter=b5
sample=Violin2Solo_pizzicato_MF_B5_RR2.opus
</region>

<region>
hikey=E7
hivel=127
lokey=a#6
lovel=1
lpc=UPVVQOg+o8DPUFBAQy7xv/YyN0BB5zHArEUNQLQLGMC/+g9AJsCnv7X34T//NiTAAMs/P3oNuT8Ob5y+hQZVv1YTk72FVXo/1FB9v9bYvz9b85K/CpgMP9c1777+jKM+
lpc_rms=-35.24
offset=1713
pitch_keycenter=B6
sample=Violin2Solo_pizzicato_MF_B6_RR2.opus
</region>

<region>
hikey=c#4
hivel=127
lokey=c4
lovel=1
lpc=r/dNQTgjBcJmJi9CtmEZwttvs0EhJiHBLFz6QGDJT8GcG21Bl8NCwR+0D0Ht59nAxrPYQLm1DcE6JitBYPQHwb8EZUBDsQc/W5w5wBr2i0A9ZLDAPOjGQPlewMAyVEhA
lpc_rms=-41.20
pitch_keycenter=c#4
sample=Violin2Solo_pizzicato_MF_C#4_RR2.opus
</region>

<region>
hikey=c#5
hivel=127
lokey=c5
lovel=1
lpc=V64EQVunlsEp/5ZBMRoXwVqf0r9yUA1BbH0ZwTbOk0Bu+VJAWAMUwQqtE0HwC3nAIpjAv5AqqUDIoc7Az8iQQPHGVj+LGLfAP3nkQOwcncDTuYM/M8egP1abAsAJH84/
lpc_rms=-32.38
pitch_keycenter=c#5
sample=Violin2Solo_pizzicato_MF_C#5_RR2.opus
</region>

<region>
hikey=c#6
hivel=127
lokey=c6
lovel=1
lpc=CYfmQB5kNMGkpAZBwbLCwLWD9j/p9Os/2z4UP7zdU8AF+zVAwvg8wEqimED+TSTA11TjP4nQKsDn2mQ/QvWgPuYx8z+XK8G/yE4TvXgjXL6nQi6/1s4zPpAoPj9nu7Q9
lpc_rms=-32.84
pitch_keycenter=c#6
sample=Violin2Solo_pizzicato_MF_C#6_RR2.opus
</region>

<region>
hikey=d#4
hivel=127
lokey=d4
lovel=1
lpc=XFI4QSgGBcJ/zzpCbHorwusP0EHXlw/Bj78ZQIVss8DEkw5BLSb1wDrkFEBDnn1ADaFMwHIHcsA00wxB+8kDwZN9UEDxERlAwl+0wIx8jEDHX6C9uABgwJLQbUC5Ep6/
lpc_rms=-43.04
pitch_keycenter=d#4
sample=Violin2Solo_pizzicato_MF_D#4_RR2.opus
</region>

<region>
hikey=d#5
hivel=127
lokey=d5
lovel=1
lpc=8CUbQbqasMFK9cNBJcOHwURO8UAJmq2/YcyrPsKGxr/ab9s/zAGyv3vfH0C2wTPA62GJQMxib8BivhpA0cxRwIglq0CNGnrAjgaTv6r9sUCSdcrA7LqaQBaWWMCz1xNA
lpc_rms=-28.20
pitch_keycenter=d#5
sample=Violin2Solo_pizzicato_MF_D#5_RR2.opus
</region>

<region>
hikey=d#6
hivel=127
lokey=d6
lovel=1
lpc=ZFx3QId3s8Bqy1NAmS/Jv0Urpz4lDf4+8qYJP4AuDsC3JGFAzdNLwK54DUCeGFW/z4Huvcx7dj6TICY/CemLv4+Yuz9VKRm/kmJIv9sPM79uHrs/gU3UvoFgAD9qK4i+
lpc_rms=-42.50
pitch_keycenter=d#6
sample=Violin2Solo_pizzicato_MF_D#6_RR2.opus
</region>

<region>
hikey=f4
hivel=127
lokey=e4
lovel=1
lpc=9nHyQMk8isGhEIpBcV0Owe+7/LwGLZpAdf5uwNHfQr+BdmVAtdeJwOUjskA7gnbAQaYsP9+YCLyQFKs/N0VdwD2rv0BaU8nA8DB2QF+8mL8jhSq/cU4jQIuiAMBtiAY/
lpc_rms=-39.57
pitch_keycenter=f4
sample=Violin2Solo_pizzicato_MF_F4_RR2.opus
</region>

<region>
hikey=f5
hivel=127
lokey=e5
lovel=1
lpc=wmUpQdGo18GVyAhCXOThwTu8dUH83DXATI+xvhQ7GMAVMYhAbXt1wF5ebED8UjTAhI5wP9v/XUACyfnAe6EKQTCTtMCB95lAajfzwOsjX0G5vpDBBoZ/QS8PGMFwxGhA
lpc_rms=-32.72
pitch_keycenter=f5
sample=Violin2Solo_pizzicato_MF_F5_RR2.opus
</region>

<region>
hikey=f6
hivel=127
lokey=e6
lovel=1
lpc=SHPuQNWQFcEzR3tAj8Kxv6aTgL94xTlAYewEv1va/L8jFo9ASBJFwEsrIT52eNs/6eLyv+5VrT6ZJAFApC2qv2cRzD56cDrAr5cjQFZQWT+bYw2+RTImvxjSfr4ThF4/
lpc_rms=-36.43
pitch_keycenter=f6
sample=Violin2Solo_pizzicato_MF_F6_RR2.opus
</region>

<region>
hivel=127
key=g3
lovel=1
lpc=m+cZQXU+uMEVOMdBnm2Pwa5OM0GseuvAz8Z+QHD0QcBaJKFAsPOlwJ7hNEC6KIK9qNxSv90s3T/mbyTAAvgUQG1SC8AxjVg/lJqEPw5uY79CWJa/2acDQLmK1r9Nezk/
lpc_rms=-44.54
sample=Violin2Solo_pizzicato_MF_G3_RR2.opus
</region>

<region>
hikey=g4
hivel=127
lokey=f#4
lovel=1
lpc=ra7iQNUSgcH+tIJBSMAWwYuuGkCfNipAgTinwAxdOUDWumg9JmtKv4yYyj/oQwjAmpPQP4bXjr/NBh9AUNRWwIFZU0Ab5EjAScgZQKfvfb9Koge/IweqP8be/7+ppbc/
lpc_rms=-38.92
pitch_keycenter=g4
sample=Violin2Solo_pizzicato_MF_G4_RR2.opus
</region>

<region>
hikey=g5
hivel=127
lokey=f#5
lovel=1
lpc=CNWJQEwd38CSTpVA/rYuwMjfCUCkDJi/HAawPySCI8C+ATtAXZ3fv/R0Sz/fqis+WEMfPkTzrr+/vN8/ESvavwJtmT/Ffwy/rqehP+jVKL+XWAu/TXuWPx26db/KddE+
lpc_rms=-40.80
pitch_keycenter=g5
sample=Violin2Solo_pizzicato_MF_G5_RR2.opus
</region>

<region>
hikey=g6
hivel=127
lokey=f#6
lovel=1
lpc=S8yeQGYH/sAZJ71AG5lpwG/4xT9YmZo/Hte5vjhoIMCxCz1AkqlDwBIqVEAOQGK/RLJbvn2qpL9RFQQ/E4/rvwcKiUDYCIXAyN4mQAcyyr+RbOg9vZr9PpAnrj4XTO++
lpc_rms=-43.19
offset=4417
pitch_keycenter=g6
sample=Violin2Solo_pizzicato_MF_G6_RR2.opus
</region>
</group>

<group>
group_label=RR3_0-42
lpc_hicc1=42
lpc_locc1=0
seq_length=4
seq_position=3

<region>
hikey=a3
hivel=127
lokey=g#3
lovel=1
lpc=CszMQKa9b8EIuolB45tKwcEX2kCJWyXAKD7av1pZfUBf/RrA8NtLv4InAUD96rq/cUkHPwDvk77Lpy8/cABvvzwEjD6TYP4+UoGrPkMojb+ozHY/O1eLvhVYHj8qZva+
lpc_rms=-51.59
pitch_keycenter=a3
sample=Violin2Solo_pizzicato_PP_A3_RR3.opus
</region>

<region>
hikey=a4
hivel=127
lokey=g#4
lovel=1
lpc=BfIdQY9ytsFcdbtBa0lHwQTq+r5/n+ZA5RikwBgX7b/nse5Ajp4awXAEAkG6YHPADK+yPZpJNkAaW4nASYFBQJ/x2jwHF96/lN4MQH2vrb9EsyXAm8naQLDv8MACNnlA
lpc_rms=-39.09
pitch_keycenter=a4
sample=Violin2Solo_pizzicato_PP_A4_RR3.opus
</region>

<region>
hikey=a5
hivel=127
lokey=g#5
lovel=1
lpc=wS+jQHLUKMHAXUBB37crwaZvC0EB/P7AZ1sgQaorTsF7tktB7Gw+wQkIRUFxgD7BzrMtQWT5I8EBVRxBMgIdwWNSM0F35SHBKkXkQAjsucDGoaRAhsyCwE3jKUDom62/
lpc_rms=-45.10
pitch_keycenter=a5
sample=Violin2Solo_pizzicato_PP_A5_RR3.opus
</region>

<region>
hikey=a6
hivel=127
lokey=g#6
lovel=1
lpc=uzyFQN2h5MDdm8dA6lV+wAphKEA+q2C/DHjBvs/lFT+g/4s+bvy9v28kxD9X/oi+DifKvFllor+7Oeo+8HR5Phkq5z7biuO/F8HMP0dig79WHB8/6oEZv00V4j4C0bG+
lpc_rms=-48.32
offset=11242
pitch_keycenter=a6
sample=Violin2Solo_pizzicato_PP_A6_RR3.opus
</region>

<region>
hikey=b3
hivel=127
lokey=a#3
lovel=1
lpc=NJu1QHq+QcEd8jxBlirbwGj3aUDiLBvAzBwAP6W+jb40nI4/Kuq6v3EvOT+dF44+dXoDvmn9g797tI4/ne7HvsCGAj/KSIS/XsTKPiZtNj85PUK/MrgZPiBupj69Ar++
lpc_rms=-57.62
pitch_keycenter=b3
sample=Violin2Solo_pizzicato_PP_B3_RR3.opus
</region>

<region>
hikey=b4
hivel=127
lokey=a#4
lovel=1
lpc=VGSXQCluJMEdVC5BD4rMwNwSiT/6yLY/qYA+v0uiHMCn445AvjeEwNWSFUC7QvS+zloxPklPwL+HbSBAptbwv25YHz8NojQ/vIpkv5T6Lz6zF5o9efoNvrKAwD5Resu+
lpc_rms=-54.04
offset=12814
pitch_keycenter=b4
sample=Violin2Solo_pizzicato_PP_B4_RR3.opus
</region>

<region>
hikey=b5
hivel=127
lokey=a#5
lovel=1
lpc=13+lQGkrCMEengNBfU+0wL4ya0CJIBTAd2nGP/3Z979hICVAtC0/wFW4FkDo8ZK/ZgAkPhVlA78PdwZAifU4wK89FEBJE7m/qPOhP3nsxr9GYcw/6teuvwyGoT+gAeO/
lpc_rms=-44.10
offset=6286
pitch_keycenter=b5
sample=Violin2Solo_pizzicato_PP_B5_RR3.opus
</region>

<region>
hikey=E7
hivel=127
lokey=a#6
lovel=1
lpc=XnS4QPWBM8HaWyhB93fCwH1Wl0AdCifADtD8PViCGD+7aPe+yMWEPx36Kr8x5Y2+f+Wsv+69AEBrEvm+C2rMv1NVxj8H2OG/mZnkP3i4w7/o97w/XG3lv1Ktmj82Xdy+
lpc_rms=-46.60
pitch_keycenter=B6
sample=Violin2Solo_pizzicato_PP_B6_RR3.opus
</region>

<region>
hikey=c#4
hivel=127
lokey=c4
lovel=1
lpc=ukYcQT0Dt8HErMNB3yZ+wa4660CJg6PAdBhHQL+ZUMDuSdBAdDLbwK/BQUCPo8E/yHwGwFSjRj9lfvO/MTOLQDEedMCWjyS+9DpbQEItJMCQiSa/IBwzQMKNGcCBMlU/
lpc_rms=-45.87
pitch_keycenter=c#4
sample=Violin2Solo_pizzicato_PP_C#4_RR3.opus
</region>

<region>
hikey=c#5
hivel=127
lokey=c5
lovel=1
lpc=IQQdQQ4Go8HHKqBBII5wwS+RC0FFQ2LA7QdqQOMV0sAuDwpBzsUUwdZxAkEKe6rAGFaJQAaAOcC7ars/ZvYtv6KnXb+EYGpAFl+IwGQpL0DYuRvAXA8mQCc2KMCO/wBA
lpc_rms=-36.39
pitch_keycenter=c#5
sample=Violin2Solo_pizzicato_PP_C#5_RR3.opus
</region>

<region>
hikey=c#6
hivel=127
lokey=c6
lovel=1
lpc=RbLGQOl2I8HUXwxB4396wFdFPz/xO8w/kxsewL4OA0DCPS2/0N6dv/MZyz8Ycwy/eoPXPpMHjr+a6tk/fejOv2KliT8eS7W+hP+AvySVLkAxSk/AMlq5v5UJU0BAbw3A
lpc_rms=-47.31
pitch_keycenter=c#6
sample=Violin2Solo_pizzicato_PP_C#6_RR3.opus
</region>

<region>
hikey=d#4
hivel=127
lokey=d4
lovel=1
lpc=M12rQLfvRcFdwllBIWYNwVDmj0Awb0nA1cH8P6LBvr8hR/8/PVoawPRzBEDOLKi/fq0zP3kzNj/e1ELA7cmVQJkTpcCoNYJAjTwywDlFBECFNg3AuhMdQC7n1b9vHSE/
lpc_rms=-52.35
offset=108
pitch_keycenter=d#4
sample=Violin2Solo_pizzicato_PP_D#4_RR3.opus
</region>

<region>
hikey=d#5
hivel=127
lokey=d5
lovel=1
lpc=oUucQEq+DcGD+9ZAYT1PwK9M+D9gyVvAoa18QFs8F8DAFdE//trYv1ChGEDPrOC/Tr+CPwBGx7/gce0/sjjQv9RhRz9L558+6jhIvycWZz77ucg9fYFFPwZOgL8f6gM/
lpc_rms=-46.45
pitch_keycenter=d#5
sample=Violin2Solo_pizzicato_PP_D#5_RR3.opus
</region>

<region>
hikey=d#6
hivel=127
lokey=d6
lovel=1
lpc=XF5qQKiyvMCxs5xAgJFgwNcpD0BIycq+NCa6vp1dVr/UdwFABLHPv7VHtj9xJpm/t6iVPqzp6z6GGw+/5hWLPb4nur4NeIU/W8lov1MhRL93mbg/GPfNv3YUqj8Faja/
lpc_rms=-54.02
offset=12213
pitch_keycenter=d#6
sample=Violin2Solo_pizzicato_PP_D#6_RR3.opus
</region>

<region>
hikey=f4
hivel=127
lokey=e4
lovel=1
lpc=N82/QGs/IcGqtPZAIAIvwPbdtr9vce4/V/Exv8Jy27+2zbY/MKcRvwYe0z6ivAe+kkWRPZ617T4aiLa/RnaCP+7rNr5ONyS/OUudPrxXnD5t7wm/3+J0PyZbwjwXD4y+
lpc_rms=-50.94
pitch_keycenter=f4
sample=Violin2Solo_pizzicato_PP_F4_RR3.opus
</region>

<region>
hikey=f5
hivel=127
lokey=e5
lovel=1
lpc=EYajQAHnpsBPXuw/1kA7vwfkIj4ShMg94ELRvIlpab9HsrU/wJMEvqLBUT89vVk+rJPRviruFT+nbJ2+16kHP870zr5B712/EtiAPk4/wD/ovli/c3JIPz3IJr+XZ4M/
lpc_rms=-36.68
pitch_keycenter=f5
sample=Violin2Solo_pizzicato_PP_F5_RR3.opus
</region>

<region>
hikey=f6
hivel=127
lokey=e6
lovel=1
lpc=W8StQNc3GcFyeAtBM/CXwP7QoD+l8p8/qVRwvzq4CT71zeQ/mrlIwNI0LEDNX0O/dp8hv2teEj+425g/j5kEwDZl6D/qboXAiz6nQCqQasBgArw/x6GLvp3fBL/Hn24+
lpc_rms=-47.45
pitch_keycenter=f6
sample=Violin2Solo_pizzicato_PP_F6_RR3.opus
</region>

<region>
hivel=127
key=g3
lovel=1
lpc=2IGuQFvJQcEZIUdBV2QAwfEKhEBlo/q/EIuVPkkwyr5JIuw/VIQAwGH0vT5DfHw/iy1zv9U4/z7PhR0/hZiTv6JTRj/FIDm/7rs9P2iCVb9b6Cs/PTJQv7CthD80viC/
lpc_rms=-57.17
offset=245
sample=Violin2Solo_pizzicato_PP_G3_RR3.opus
</region>

<region>
hikey=g4
hivel=127
lokey=f#4
lovel=1
lpc=LyiyQBahO8FGNyxBH6iMwPdxcr8IYJY/mWlNPwOhKsBWyD9AVed8wGtfk0AFCCLAh1Jtvl6y6T+Sm7+/36dIP7JO9D1GZzq/SOKfP5RHvL8rHaC+YakbQOHKLcCNKIo/
lpc_rms=-48.02
pitch_keycenter=g4
sample=Violin2Solo_pizzicato_PP_G4_RR3.opus
</region>

<region>
hikey=g5
hivel=127
lokey=f#5
lovel=1
lpc=3VGPQMWS7sAIbhBB6zMJwQ2h00CRpzHAL+/gvhQQ5D+fX2LA9it0QFU3E8AZIWc/qZlvP0lMPcBonIZAOq5FwDtJIUA5vJG/Y89Uvy1HMkAepCPANqYnQDa7EsD9aj0/
lpc_rms=-42.03
pitch_keycenter=g5
sample=Violin2Solo_pizzicato_PP_G5_RR3.opus
</region>

<region>
hikey=g6
hivel=127
lokey=f#6
lovel=1
lpc=QBekQCjWA8HpsrpA8w97wBQGeEBI+pm+jB5pvi9SH8AycQhArtFgvswlszrhtFs/z85dvxFcFr9EQYc/UcFFwAEmYUDDdZm/B8w1Pg5wg79nVRm/ALyePpAEnT8KIYS/
lpc_rms=-49.94
offset=8507
pitch_keycenter=g6
sample=Violin2Solo_pizzicato_PP_G6_RR3.opus
</region>
</group>

<group>
group_label=RR3_85-127
lpc_hicc1=127
lpc_locc1=85
seq_length=4
seq_position=3

<region>
hikey=a3
hivel=127
lokey=g#3
lovel=1
lpc=5RH1QCvIj8GwJptBDRxawZf7ykDaGi7Ayel9QAUAwsBpAsZAXIZIwO/TQz8kblG+lwdJvjHdx74jUZ4/UIuivqd5gL/P/pk/fmCCvSInb785yD++QMy/PzT0gL/kW58+
lpc_rms=-45.63
pitch_keycenter=a3
sample=Violin2Solo_pizzicato_FF_A3_RR3.opus
</region>

<region>
hikey=a4
hivel=127
lokey=g#4
lovel=1
lpc=uJ0FQWwkl8HjYJJBWVQgwcpdVD6Wqv5AJ3klwYvjxkBahjq/OkMmwKHso0DJgbbAONydQAichcCAXTxABxSqvs6ggr+XBAy9sWxqv1g1ckA7v4jAwCIQQLX3v77sqtU9
lpc_rms=-32.98
pitch_keycenter=a4
sample=Violin2Solo_pizzicato_FF_A4_RR3.opus
</region>

<region>
hikey=a5
hivel=127
lokey=g#5
lovel=1
lpc=EIswQYBPoMGWhoxBEa8Qwfo0XUD3Go8+gbKGPlyZt78kN8Q/afElPmR1473Ifqc/sm9Gv48vRb3PNIo/ZEqRvi2akj8VUwe9QvXwvtQoSr0XQvc/pZsUwIPGVkCBMeq/
lpc_rms=-17.38
pitch_keycenter=a5
sample=Violin2Solo_pizzicato_FF_A5_RR3.opus
</region>

<region>
hikey=a6
hivel=127
lokey=g#6
lovel=1
lpc=P/aaQN1D18AiHMRAKrV/wP39LEB1uKi+Pf9hP40+ar8wA8s/ECvOv3mTF0DeHVa/V3KiPxuaJMDgzL0/oGdWvEdU0j4YizQ+9eT2vu+sgb5znWg/iMiLv+ANwD93aTq/
lpc_rms=-31.28
pitch_keycenter=a6
sample=Violin2Solo_pizzicato_FF_A6_RR3.opus
</region>

<region>
hikey=b3
hivel=127
lokey=a#3
lovel=1
lpc=zGFBQQsR+8GTCAtC8saswTMGC0FLhEXAgEHmP9SKNcB5mKxABCTTwEn/2UCMI7XATYuJQDkRMcBGaEK/1p5SQEf5Db9f55PAnGe0QMeJBsApfee/u4edQJGxq8Cc4RtA
lpc_rms=-37.51
pitch_keycenter=b3
sample=Violin2Solo_pizzicato_FF_B3_RR3.opus
</region>

<region>
hikey=b4
hivel=127
lokey=a#4
lovel=1
lpc=5Z0hQawqzcFLo+ZBl+idwadpOEGv1xvBvPUlQTb7F8EbkvtAtQzZwBSR2EDV9rzAVF2KQM88ScDatSRAYJD0v8bNqD+TM4S+8RkPv65prD8ySSXAHGFIQLk0McAITpg/
lpc_rms=-29.71
pitch_keycenter=b4
sample=Violin2Solo_pizzicato_FF_B4_RR3.opus
</region>

<region>
hikey=b5
hivel=127
lokey=a#5
lovel=1
lpc=GxYJQbOcT8FHeQpBqeW8wLUwkUBqHELAmt2JQOLUh8CCbntAadeswLJz5ED8kMzAwR8mQPFutD6vhzpAXKbKwCBKuUAbiGnAmuVjQDBfOsApLOQ/aTwQwNjEkD/0bd6+
lpc_rms=-35.91
pitch_keycenter=b5
sample=Violin2Solo_pizzicato_FF_B5_RR3.opus
</region>

<region>
hikey=E7
hivel=127
lokey=a#6
lovel=1
lpc=cCqbQFkd6cCGL5VAdcVWwGVKKECkzYK/qSKvP/yg8b5RwM2+LMIYv1Pb8T++NzLADab1PiiYsj/l1BM+caaEvvO81j21xsG+yDhcv/NCjj9O4Uw+NiYHvm3X5L6t2nA+
lpc_rms=-38.63
offset=8845
pitch_keycenter=B6
sample=Violin2Solo_pizzicato_FF_B6_RR3.opus
</region>

<region>
hikey=c#4
hivel=127
lokey=c4
lovel=1
lpc=EB0KQc5NpsHWE8JBJ4SYwbbB6EB8co4/5xQqv3juNMBercpAzXj2wMf2zUA3ymLAtwEPPh/FEUDktM6/sYyHv0TkAEDe0Ba/sW/Nv8GQHkC/hNu/OTRrP59Wwr5EoGw8
lpc_rms=-38.32
pitch_keycenter=c#4
sample=Violin2Solo_pizzicato_FF_C#4_RR3.opus
</region>

<region>
hikey=c#5
hivel=127
lokey=c5
lovel=1
lpc=ZmwHQeOLmsFwa6pBUBuFwR/7H0G33GTApNY8P+xZkb8trXk/dhPWPHXdvz/96GzAloaEQM3NhsAYv5ZAzP19wH30DUAKypE/5byjwMG44EAz0anAzI8nQOhoi7/9FD0/
lpc_rms=-30.11
pitch_keycenter=c#5
sample=Violin2Solo_pizzicato_FF_C#5_RR3.opus
</region>

<region>
hikey=c#6
hivel=127
lokey=c6
lovel=1
lpc=Xz5UQVFZzMEm3q9BzrU3wWs8J0DlzoM/KRcUQHiPsMCe5qRAK7hvwO2ZHEC/oYNA7k8VwTzRJEHn8QzBy4K5QGZ7rr8t+gU/7lKnvx7dqz+RfiO/2n2JwCwTp0CMvI2/
lpc_rms=-27.15
pitch_keycenter=c#6
sample=Violin2Solo_pizzicato_FF_C#6_RR3.opus
</region>

<region>
hikey=d#4
hivel=127
lokey=d4
lovel=1
lpc=xh8hQUYd5MEY6xZCQdTswft1KEEX+41AwxC/wKw/7b5RfvpAAxZOwSE8WEHL3w/BGfN/P4o8pECho5/AaFkyPzMPR0CYD5LAbjuuQNuvxcCWrJxA0E/lvxkWQL/DzkI/
lpc_rms=-36.81
pitch_keycenter=d#4
sample=Violin2Solo_pizzicato_FF_D#4_RR3.opus
</region>

<region>
hikey=d#5
hivel=127
lokey=d5
lovel=1
lpc=QAvXQGJua8F08G5BJjAmwUUM6kAt06zAUMyqQJJhq8DuYlZARnrav4q4qz966vy+wxU5P5SYvb/BWa8/z4tkvzxfuT5dksY/7hVKwCW0hEBS0IPARcRgQEl7AcCiG1U/
lpc_rms=-29.30
pitch_keycenter=d#5
sample=Violin2Solo_pizzicato_FF_D#5_RR3.opus
</region>

<region>
hikey=d#6
hivel=127
lokey=d6
lovel=1
lpc=4UPmQP6hW8HpUDVB7F61wDMuC0DGGqE/pa2dwFypvUCot0LAdhgWQMrEZL+iZTDAah6CQIb8FMDUoBBAE+Lhv3HXTLxRduc/OYpVPgJdosAnTbtAmfU2wG22RD/fZW0+
lpc_rms=-31.80
pitch_keycenter=d#6
sample=Violin2Solo_pizzicato_FF_D#6_RR3.opus
</region>

<region>
hikey=f4
hivel=127
lokey=e4
lovel=1
lpc=U+vnQNshiME324pB/qQTwYLcrz9Sp90+8VGJQCOnCMFsJAVB6A/DwBV9tECZu8vAOJq0QHE3OMBGv4I/QR5rv6N+IkATdo/A/l+DQGHsn79DaCS/gnjPPlhF5z19qio+
lpc_rms=-37.12
pitch_keycenter=f4
sample=Violin2Solo_pizzicato_FF_F4_RR3.opus
</region>

<region>
hikey=f5
hivel=127
lokey=e5
lovel=1
lpc=vEhnQUtYDcI6FSpC528Nwj94uUGHAA/B+kbNP1rFC7/yTwQ/Fp2jPsDgq78H7i1AOFzCv64CNb8ZwChAWRW2P2eaC8GP3DdBamPfwB2Hf0CRcyTAU4s+QE3bjMA1WVJA
lpc_rms=-23.18
pitch_keycenter=f5
sample=Violin2Solo_pizzicato_FF_F5_RR3.opus
</region>

<region>
hikey=f6
hivel=127
lokey=e6
lovel=1
lpc=tn9OQXgZrcFaio5BijX1wI5mjD0J+mBAAOAtwJnnk0BEjt6/6e4BwLhPq0BcL4fA+hCWQPZtnsBU4+tA/1aIwHz0WL/dwb6/b0ebQMVxGcAWKay9DD/TPyLzEb+kTBQ+
lpc_rms=-21.43
pitch_keycenter=f6
sample=Violin2Solo_pizzicato_FF_F6_RR3.opus
</region>

<region>
hivel=127
key=g3
lovel=1
lpc=5FDpQOGPgcHYbGNBQjXHwLd8pT/IiD8/qRFavnkXMsBiyGpAsT2lvzfKPr6H7CM/A1kIv/DUhb/PRTVAFai3v5REnL8HQkg/cb2PPz85hL892k8+Xj9gPuHYLL+CVug+
lpc_rms=-46.76
sample=Violin2Solo_pizzicato_FF_G3_RR3.opus
</region>

<region>
hikey=g4
hivel=127
lokey=f#4
lovel=1
lpc=IOK5QNjTScFuGjxB3xqvwF3sq78V0bpAkfXHwJ1qIEBE6gZAcVWLwM8pgkBvsRHAve2cP09ypb+OYIY/q63Dvp81Ez+ZJCq/P4lKvuEzkT8oZl+/lpKmvnbzDT+b2lw8
lpc_rms=-35.21
pitch_keycenter=g4
sample=Violin2Solo_pizzicato_FF_G4_RR3.opus
</region>

<region>
hikey=g5
hivel=127
lokey=f#5
lovel=1
lpc=J42rQPn1PcFYkVxB+hRAwUoYD0ExA7jAy+5+QOo5McDdUow/zKtiPaTS473MkRk/Fg88v/99mT9lpfK/Pi7nP0JLQ79ZxGU9GmCrPysx8L+kgNE/dsPkv8Dntz+497S+
lpc_rms=-30.80
pitch_keycenter=g5
sample=Violin2Solo_pizzicato_FF_G5_RR3.opus
</region>

<region>
hikey=g6
hivel=127
lokey=f#6
lovel=1
lpc=WFKTQDW5BcHske5A04VowF0YgjyPGFpA+jtywJm9EEC2p2m/x4qsPmiGbT+ayqm+3BKtvs2lrT/Az/a/PotDvjmqVEAlC2rAYrAiQOZzcL+F26q+NtsdPz+9bT5J/Ei+
lpc_rms=-29.26
offset=898
pitch_keycenter=g6
sample=Violin2Solo_pizzicato_FF_G6_RR3.opus
</region>
</group>

<group>
group_label=RR3_43-84
lpc_hicc1=84
lpc_locc1=43
seq_length=4
seq_position=3

<region>
hikey=a3
hivel=127
lokey=g#3
lovel=1
lpc=f1W3QKJuWMHUj2xBemIfwU/Bh0CTuLa+LczBv75/Rj9Gk4I/pnCYv5Dqmj9kY0zAlsyYQIidYsBZj34/sU5eP3/w+7/HnwlAiDgHv49xqL/2UaE/rVQrvw6uNT/4bfO+
lpc_rms=-48.76
pitch_keycenter=a3
sample=Violin2Solo_pizzicato_MF_A3_RR3.opus
</region>

<region>
hikey=a4
hivel=127
lokey=g#4
lovel=1
lpc=mGPiQFk6gsHDzIRBaXwXwTUDUD+VpYNANnYnwAbPLMBwmexADLkIwZuG8UAMYK3ApVAuQD7mq76OCS+/Pf3NPfN8B0Alg5TAIba8QGF+nMA3wwpAQscFP0h50b9kqIA/
lpc_rms=-34.29
pitch_keycenter=a4
sample=Violin2Solo_pizzicato_MF_A4_RR3.opus
</region>

<region>
hikey=a5
hivel=127
lokey=g#5
lovel=1
lpc=J+XqQMD5EcFweH5AUuUnwEjG0D8i0go/+BdNQL0BxMAx02VAutsVwPwUdkCl+He/TreIvg5fDMChZok/hMlZPgwBf0CxUj3AIBylPptLs7/LEQG/qnSGQL9nBMChzEG/
lpc_rms=-30.62
pitch_keycenter=a5
sample=Violin2Solo_pizzicato_MF_A5_RR3.opus
</region>

<region>
hikey=a6
hivel=127
lokey=g#6
lovel=1
lpc=42B+QEnx68CcLfNAI7DRwNsovEBDbV/ApSDcP55io7/VGis/pmztPUC++L6LpRE/Z/i3PVJEOsDEZHNAfuokwIRL8D80Ts6/QX0DPhIGxD4pkpQ9k1rNvoT+oD5AKtO9
lpc_rms=-46.26
offset=3414
pitch_keycenter=a6
sample=Violin2Solo_pizzicato_MF_A6_RR3.opus
</region>

<region>
hikey=b3
hivel=127
lokey=a#3
lovel=1
lpc=+afGQFHteMEwNpZBXSd8waVvM0Ec+8PAN9MMQIpR178O7i1A6yhNwCn6X0BKilbAEEwXQKwsub/EYmo/IEuGPjvL47+6egNAgjq1v6ccNT+/35y+XFPmPXixWD23q728
lpc_rms=-44.49
pitch_keycenter=b3
sample=Violin2Solo_pizzicato_MF_B3_RR3.opus
</region>

<region>
hikey=b4
hivel=127
lokey=a#4
lovel=1
lpc=3Aj9QD8SiMElBIlB9ZxJwd48skBmHA8/xu3hvzDWgL4zgYI/CsgxP5iy27+14iBAKN9evy+0sr+FuwBAl/X6v1RTCz+faJs/pJsHwErAKEDMrmbA6N2DQD1mK8DXNl4/
lpc_rms=-34.32
pitch_keycenter=b4
sample=Violin2Solo_pizzicato_MF_B4_RR3.opus
</region>

<region>
hikey=b5
hivel=127
lokey=a#5
lovel=1
lpc=4jsRQSVKU8FGLQdBxaCKwD0diz/hKfo/s/oPP9G8g8BsRnJAwJchwHh8kj6/FlpA87ZdwC+YhUALq3vANSCqPbEkLkAejA3A+qIKQBvSBL/F6SvAnHokQDjMOb90U1i/
lpc_rms=-30.00
pitch_keycenter=b5
sample=Violin2Solo_pizzicato_MF_B5_RR3.opus
</region>

<region>
hikey=E7
hivel=127
lokey=a#6
lovel=1
lpc=snZRQNJ8scAeR4dAlrrhv3DQuT8fTDjAUzWLQHQ0gMDhSihAImD5v7lOQkD0+XXAhA8kQJbHiL/6E7k/oczgv2cuqz/1GcG+XW8Tv64AUz/jSQI+b+2+vhl2BL4kwZM+
lpc_rms=-38.31
pitch_keycenter=B6
sample=Violin2Solo_pizzicato_MF_B6_RR3.opus
</region>

<region>
hikey=c#4
hivel=127
lokey=c4
lovel=1
lpc=wQJwQfalEcJyqCpCX9kEwvACokFe21zB7q9MQfeARMEm3dhA9GoswAfyE0C8YJrAbEElQVbxcMHQoYxBYemTwWekb0H+Q+XAxvzEPxxqD8A0/4lA17RNwG4lcj9v3Rk/
lpc_rms=-41.11
pitch_keycenter=c#4
sample=Violin2Solo_pizzicato_MF_C#4_RR3.opus
</region>

<region>
hikey=c#5
hivel=127
lokey=c5
lovel=1
lpc=yJ7YQImqcsHIp2ZBRafcwKIUeb6pIY9At+WswLyxcECgyiDAR0MdQB1JDcDt+70/rYrnvsfO0T0RCT0/soogwIu6fEDfGFbAQWoNQFWbEsDFtwFAj2BVv+sJO7/6v3U/
lpc_rms=-37.43
pitch_keycenter=c#5
sample=Violin2Solo_pizzicato_MF_C#5_RR3.opus
</region>

<region>
hikey=c#6
hivel=127
lokey=c6
lovel=1
lpc=J7K/QCPTBcEtwIJAa63kv1i4fT9FQhA+ApCNPhW0C8BkXz1AzYrpv6OcUUCjUX7A/hYEQArE/r2zcPg+ESxSv9oKLD+Hgme+CWTmPjxZMb98J0g/GY44wBceG0DxL8Y8
lpc_rms=-34.93
pitch_keycenter=c#6
sample=Violin2Solo_pizzicato_MF_C#6_RR3.opus
</region>

<region>
hikey=d#4
hivel=127
lokey=d4
lovel=1
lpc=xeMkQZE/58EeJBpC8DcLwpJNwUEcoDrB519xQDTWScAPlZBAkMbCwCf45EAK1rLAGluCQKqThcAvVrJAyeDNwAEgi0Dsuha/NSYgwHpyUUC2MkO/JTkDwEXW0D/ksvu9
lpc_rms=-39.59
pitch_keycenter=d#4
sample=Violin2Solo_pizzicato_MF_D#4_RR3.opus
</region>

<region>
hikey=d#5
hivel=127
lokey=d5
lovel=1
lpc=aKIGQQ1glMGidpJBIJ0fwQJ26D9xoDJAsdP4vzt0CcA9t6FAqyKOwI82M0AzYFS/tpfXP+WZacAPNUtAI4+1vgSYq7/VRco/RfkVv6MHrr7b25O+l3JDQO4RlcDoDDdA
lpc_rms=-30.76
pitch_keycenter=d#5
sample=Violin2Solo_pizzicato_MF_D#5_RR3.opus
</region>

<region>
hikey=d#6
hivel=127
lokey=d6
lovel=1
lpc=EdmYQDld28CIdCdAiGcMPUluR7/6nwBAFTLVv3onQ74NMaU+diu1P30mfT1CBBjA0xWcP/gYh76mvq0/jYoYv9lSO78RxR4//oISv5i2kL/khhVA42Pmv8Bhiz9+n6i+
lpc_rms=-40.80
pitch_keycenter=d#6
sample=Violin2Solo_pizzicato_MF_D#6_RR3.opus
</region>

<region>
hikey=f4
hivel=127
lokey=e4
lovel=1
lpc=9aOvQHDZLMEfew9B7m6PwJH4hb3f8CtAKjplv+9Q0b9nFxFAguIjwLF8HUBOMaS/hAFMP1sBpb822PM/waMNwAPFzj8tA7U8i73hvleuozwY2z2+xhaZPpEPt74F3cU+
lpc_rms=-40.95
pitch_keycenter=f4
sample=Violin2Solo_pizzicato_MF_F4_RR3.opus
</region>

<region>
hikey=f5
hivel=127
lokey=e5
lovel=1
lpc=4mAuQaAxzsG/zORBriudwRTdH0H/Ui3Ao6imP3Ikp8CBMyJB4TsPwVUOQkBU6aI/oqD2P1y2AcEsxzFBfMQdwfa89EDMiQfAZyIAwCO4SD8rCzJA4LCiv//UJsChkDRA
lpc_rms=-31.07
pitch_keycenter=f5
sample=Violin2Solo_pizzicato_MF_F5_RR3.opus
</region>

<region>
hikey=f6
hivel=127
lokey=e6
lovel=1
lpc=ZrU9QIQ2XcBnVw1Aodhbv1pNyr5QgMY+Nbs6vpQ9HL9k/KU/9Z84v/EwBD+JS4I+uF9ivnSgSr4WlkQ+aZ1LPYKBPb2rvrC/RODGP3nkLb+lQKg+C8VpPSALLbz8+LM+
lpc_rms=-42.81
pitch_keycenter=f6
sample=Violin2Solo_pizzicato_MF_F6_RR3.opus
</region>

<region>
hivel=127
key=g3
lovel=1
lpc=xGxQQekTDsIfeTJCzgwVwtMiuEFpvw3BYxhkvocOCEBtHIM/Bi4CwDgMs71RteQ/rtYXwGk6O0AqBnTAKmlaQNQUDcApuwJAqc8FwPUpSEDaYWPA+GfPP9m+h79cylU/
lpc_rms=-41.77
sample=Violin2Solo_pizzicato_MF_G3_RR3.opus
</region>

<region>
hikey=g4
hivel=127
lokey=f#4
lovel=1
lpc=8H/rQM66iMFDv5FB4zAxwRo7KkAry6U/i7kwv+0qI8BBD3RABqsKwBdGqL0ExjU/hzHtP49zhMBY2ZVAkBRlwMoSaUCdnI/AjFmHQNvaFMDEoWK/36IrQPqdPsDKg9A/
lpc_rms=-39.14
pitch_keycenter=g4
sample=Violin2Solo_pizzicato_MF_G4_RR3.opus
</region>

<region>
hikey=g5
hivel=127
lokey=f#5
lovel=1
lpc=k9JlQKh+wcAMNJ1Ax0ZowNOrLUD+1qK/9D15P1Lxgr8xRZg/oyPnvwBT3j/1st6+Qz50PjsCTL8Q/Ic/8/7ev2cEBEDEK+a/2Uf/P+ogJL8C5oG/zzeKPw0t175ruKE+
lpc_rms=-40.53
pitch_keycenter=g5
sample=Violin2Solo_pizzicato_MF_G5_RR3.opus
</region>

<region>
hikey=g6
hivel=127
lokey=f#6
lovel=1
lpc=DtZfQAxkkMBqHck/1Pk1vj/CVz+3oXw/UB3Qv7Ji3L4aA50/wJjnPQANrz5fyem+HANLv3xKjz/YvNw+/CL7v9duFEC4dN6/Xap4P6tUCT7tphC/KknpPoRILr157zQ+
lpc_rms=-38.52
offset=1178
pitch_keycenter=g6
sample=Violin2Solo_pizzicato_MF_G6_RR3.opus
</region>
</group>

<group>
group_label=RR4_0-42
lpc_hicc1=42
lpc_locc1=0
seq_length=4
seq_position=4

<region>
hikey=a3
hivel=127
lokey=g#3
lovel=1
lpc=0pmNQCehGsFXci1BrzsKweA+tEDdFEXAdyRRPtGKnD8IzFi/hO0HvnkNNT8OzcQ+OF3hv3Ce+j+Gjpa/5BzsPRSL0Lwbnig+tDOAvrBF/T5KLRK/s1KjPrFA8j0/oyu+
lpc_rms=-53.64
pitch_keycenter=a3
sample=Violin2Solo_pizzicato_PP_A3_RR4.opus
</region>

<region>
hikey=a4
hivel=127
lokey=g#4
lovel=1
lpc=86zyQGoTicGYyo5BnFA2wXbpekDUiJi/LOpxQLFsxsBHnJZAoQcfwH9e+T+snuy/d8KyP/iWnDzRCnW9DKZPwGbIv0ClGMHAo5uNQLJHB8A5mqG+TuECQPgiIcCOpMo/
lpc_rms=-45.49
pitch_keycenter=a4
sample=Violin2Solo_pizzicato_PP_A4_RR4.opus
</region>

<region>
hikey=a5
hivel=127
lokey=g#5
lovel=1
lpc=dOW1QP7dB8FIL9VAdE6vwE6RaEAs+VS9x5mTPp8VVcBU0jZABTBnwP7uqUBGVyHAztq2PtGVpb/oeKQ/6n2Av2yodkAIGTzAwEjWvtyfvz73Dpu/IPA9QPIOrr+5cHO/
lpc_rms=-42.01
pitch_keycenter=a5
sample=Violin2Solo_pizzicato_PP_A5_RR4.opus
</region>

<region>
hikey=a6
hivel=127
lokey=g#6
lovel=1
lpc=rfw/QAuAqcBAdKNABlSAwKZ+QkC3p6S/1wjGviLthD414GY/wzGuv69FaD/McxM/PGvAv/1wwz9+vvq/OZ/uP6H0Mb+lj6e+a6y7Pk8rvb5YUig/05LBvubRvj1l10Y8
lpc_rms=-49.26
offset=9920
pitch_keycenter=a6
sample=Violin2Solo_pizzicato_PP_A6_RR4.opus
</region>

<region>
hikey=b3
hivel=127
lokey=a#3
lovel=1
lpc=ISDkQK2jkMGiXa5BTm6AwV7r5kDhn4Q/ivTcwIalvUBfNaW/Ax3ev9G4eEArQrrAZGPFQC3ZnsCWxVVAWIsGv04uKsC6+E5A/n3Jv0FR6D7wzdm/7EpzQO04W8DzspM/
lpc_rms=-48.77
pitch_keycenter=b3
sample=Violin2Solo_pizzicato_PP_B3_RR4.opus
</region>

<region>
hikey=b4
hivel=127
lokey=a#4
lovel=1
lpc=XLGUQE4MAcEWi6ZAJcJHv3Ln0r/LMp4/CgU1P2KoM8DFqZE/Ai70P537vr9qMAU/4E1mP9EnEsBb9yZAthfSvw07FD6hPos/JfTIvzNVOT7fv3Y+pD8vP28UL79P0V4+
lpc_rms=-49.16
pitch_keycenter=b4
sample=Violin2Solo_pizzicato_PP_B4_RR4.opus
</region>

<region>
hikey=b5
hivel=127
lokey=a#5
lovel=1
lpc=H2BrQGUwqcCfeZFArW1RwPTiRkBglUHA+WEDQJYg6L8E6d8/HF8FwFxQ5j8ZFBq/S+/OvvAGwD4kHpk/Vqffvx0T2j9PH/6/JWwZQNFfHMC7Xus/GtG5vyJXjT/WDJ+/
lpc_rms=-45.22
pitch_keycenter=b5
sample=Violin2Solo_pizzicato_PP_B5_RR4.opus
</region>

<region>
hikey=E7
hivel=127
lokey=a#6
lovel=1
lpc=PegOQaEfbcE2OxpBhaIawOeszj9sMaa/bl8gP7gNnb/kOY0+l2p2PssvFD/518i/BnSNPP4VGD9Nnt8+IKOlvhKNib/OU9I+0EfRvq7Ddj+vAns+96Wtv32+h77S/1A+
lpc_rms=-47.07
offset=15271
pitch_keycenter=B6
sample=Violin2Solo_pizzicato_PP_B6_RR4.opus
</region>

<region>
hikey=c#4
hivel=127
lokey=c4
lovel=1
lpc=dXcFQSUPl8EUF6FBEppWwc83yUAHbaDADJuxQLO608AcdPhATuQGwYUuCEE2BQDBjznfQEtAi8C375c/NAgTP6Ojn778QMC/w704QP5+B8CTz18/+wcXv7m3pj/EUlG/
lpc_rms=-45.17
pitch_keycenter=c#4
sample=Violin2Solo_pizzicato_PP_C#4_RR4.opus
</region>

<region>
hikey=c#5
hivel=127
lokey=c5
lovel=1
lpc=i7HiQLWkVMH0liZBtTKgwIxU6T9FNC6/IB68voO5YT+Ap0s/T2IswB1VV0Bw+0bAZWZkQIe4fMAe22pAMJYNwGoR1T82Z52/nOW5PkUlgj/R4A/Ajf1zP176pb1UYUI/
lpc_rms=-38.98
pitch_keycenter=c#5
sample=Violin2Solo_pizzicato_PP_C#5_RR4.opus
</region>

<region>
hikey=c#6
hivel=127
lokey=c6
lovel=1
lpc=bjBgQF0sisDMYe8/y4THvbsDWr+eKGM/xO0mv6aOVD1+YPM+Uas7vxU2Ez+ds52+keg2PxtRTb8byeg+CdSruya1I74ZfOA9E7Livc8ivj71Aiy+nLIUwOhJ8z8p7Bi+
lpc_rms=-42.49
offset=5764
pitch_keycenter=c#6
sample=Violin2Solo_pizzicato_PP_C#6_RR4.opus
</region>

<region>
hikey=d#4
hivel=127
lokey=d4
lovel=1
lpc=iseoQKCVNcEnVT5ByUEDwc7OpUCPU5PAUUFnQP5WQcCYdiVABaLFv2OQUj+L2k6/Jn8QP7IV8T7ZrNe/lVsOQB1wH8DbV3U/zYfbPwMHI8DzsZw/OORNPxi5H7+d7xm9
lpc_rms=-50.03
pitch_keycenter=d#4
sample=Violin2Solo_pizzicato_PP_D#4_RR4.opus
</region>

<region>
hikey=d#5
hivel=127
lokey=d5
lovel=1
lpc=7gmfQMiTIsEcRSVBj04DwW7huEBSaIDAzAeAQHT5lcCyNINATgEMwOIeZz9riWM+CmEUv7axzT57Xzq/prO6P9ETz7/TiHw/p/QRv6a/nD6IEo2//344QM8YNsAY2pw/
lpc_rms=-46.49
pitch_keycenter=d#5
sample=Violin2Solo_pizzicato_PP_D#5_RR4.opus
</region>

<region>
hikey=d#6
hivel=127
lokey=d6
lovel=1
lpc=GYqYQDOW5MDe14NAw+PYvrxCi79HqYk/INIIvgyzB8ADWTJAWBSlvxIIrj+WJ2O/ojZEv2TQWj/vJNE9hZrSvuW1aL5wVRA//X2mv6nmYb7gkAxAAUkWwKlIKD+paCA+
lpc_rms=-52.27
offset=10162
pitch_keycenter=d#6
sample=Violin2Solo_pizzicato_PP_D#6_RR4.opus
</region>

<region>
hikey=f4
hivel=127
lokey=e4
lovel=1
lpc=ZPzBQGTlK8H5G/ZAhS9dwG0yLz+XDnQ/Mu0XPfInOMDpc9s/Ucprvs9sVz59GKE/DcHLv++6xD7kKX4+xch2v1BxP0COfibAiCC5P7pMrb9KBZQ/Nvc8v327NT/UP0C/
lpc_rms=-50.16
pitch_keycenter=f4
sample=Violin2Solo_pizzicato_PP_F4_RR4.opus
</region>

<region>
hikey=f5
hivel=127
lokey=e5
lovel=1
lpc=/jaPQPcbA8GHVx5BTfgPwS/53UBnU2DAVI0DP1V+Nj9ejp+/mkP/P7Wol7+gmC0/FP9nvgEtVz7b0c29oK2xP063E8AinytAR046wKjGT0AxQzPAwRgEQBeHnb81ZJk/
lpc_rms=-44.74
pitch_keycenter=f5
sample=Violin2Solo_pizzicato_PP_F5_RR4.opus
</region>

<region>
hikey=f6
hivel=127
lokey=e6
lovel=1
lpc=PQECQdj5Z8HKdlFB3cDdwKWdiT999ZFAc0OWwLxq8T8og8U/LLuGwAgaVkBgQQI/F5VmwJMZcED3nIa/iv7mvxBTFEAwZrbA1DWvQOMwNb/PDm/AYDaGQEfFgsDX+uk/
lpc_rms=-46.21
offset=6261
pitch_keycenter=f6
sample=Violin2Solo_pizzicato_PP_F6_RR4.opus
</region>

<region>
hivel=127
key=g3
lovel=1
lpc=++ajQB3mL8EREjNBUdfvwNwXlkBuR1HA3hjkP6Ku1b/OqB9AbZMEwNjKI77uWgRAA4/3v7JzhT4JFmg/t6Qcvj+bKb6GX+O+6jbUPiicjb4z2Ik+Rm7rvob57D6f+NS+
lpc_rms=-57.04
offset=3388
sample=Violin2Solo_pizzicato_PP_G3_RR4.opus
</region>

<region>
hikey=g4
hivel=127
lokey=f#4
lovel=1
lpc=3M6kQP9KLcE8TiVBlaiWwCG0nb+gpERA7xaivyWuuL8QLeI/7uD5v3b+K0CJO7q/pEy5vmRgXj/lYvw+YbHHv3VL4D8DGve/6DlJQK4Mi8CC7ENASIC9PBNu6r9nB4o/
lpc_rms=-48.71
offset=87
pitch_keycenter=g4
sample=Violin2Solo_pizzicato_PP_G4_RR4.opus
</region>

<region>
hikey=g5
hivel=127
lokey=f#5
lovel=1
lpc=/NYsQLFJOMDvMgVAoHCkv4HQgT+K5pO/Uh1NP8O1vL+n2nw/XgaVv9MJ2T8xRWa/l/XLPsSXr773+lM/mjUMv7w4Nj99dzK/qQU5PGaagj5iHy8/VsECv99MnT1E5Jm9
lpc_rms=-43.61
pitch_keycenter=g5
sample=Violin2Solo_pizzicato_PP_G5_RR4.opus
</region>

<region>
hikey=g6
hivel=127
lokey=f#6
lovel=1
lpc=MimaQCl//8BTfr5AnghIwLl0/T9iiss/l18kwAVi1D5bGF0/Cewnv13Dyj799kY/jfeQv2KCXz4RJm4/yYqBwD8gpECzsi3ANplQP9ysO7+S5bC/lHTKPzwbUj2d3Qu/
lpc_rms=-49.94
offset=6858
pitch_keycenter=g6
sample=Violin2Solo_pizzicato_PP_G6_RR4.opus
</region>
</group>

<group>
group_label=RR4_85-127
lpc_hicc1=127
lpc_locc1=85
seq_length=4
seq_position=4

<region>
hikey=a3
hivel=127
lokey=g#3
lovel=1
lpc=bCDcQD3XhcF8qJ9BJASGwe4+HkEyyJa/ZO2NwDE6QED3xXFAiIkTwWkjG0FhgKDAjsPYvvzeOkCyrQvAsuFnvofGJUCfH3vAGIxkQFLd97/+8jI/iAknvpgCiz7pRIS+
lpc_rms=-44.49
pitch_keycenter=a3
sample=Violin2Solo_pizzicato_FF_A3_RR4.opus
</region>

<region>
hikey=a4
hivel=127
lokey=g#4
lovel=1
lpc=BPkeQc0yvMEf4bdBpHE1wQJyZb/qPhFBs3EowaAzmEDv/WNAwcXvwEKT6EBsConAylEZvnNPSECwtDvAJAQnPwCi6T/Pdi7A2j9GP2M2ZUCiea3AMEIzQMKBI79ZMts+
lpc_rms=-33.39
pitch_keycenter=a4
sample=Violin2Solo_pizzicato_FF_A4_RR4.opus
</region>

<region>
hikey=a5
hivel=127
lokey=g#5
lovel=1
lpc=FJy/QfleRcL+ijRCvJfAwcz/h0AS9xJB1t4VwWZXFkFGUEXBI7nwQMu1B0FO9ZDBxj41QbtdV0BggwvBZk1WQGZ9SUAo9WhALPd5wWA5eUHsQby/GLrjwJs440BJi3vA
lpc_rms=-23.47
pitch_keycenter=a5
sample=Violin2Solo_pizzicato_FF_A5_RR4.opus
</region>

<region>
hikey=a6
hivel=127
lokey=g#6
lovel=1
lpc=VkY2QEbdg8CqLkVA+4n3v4ZRuD4cx48/Y6QyvnO6m7/me7M/8WSmv/++yz9uEES/7ZMcPzVOw7/d+ws/L1IDPzflFb7xkCc+/VNgPQ4Flr+v6ro/AatPv4VfHj+MUP2+
lpc_rms=-48.78
offset=5864
pitch_keycenter=a6
sample=Violin2Solo_pizzicato_FF_A6_RR4.opus
</region>

<region>
hikey=b3
hivel=127
lokey=a#3
lovel=1
lpc=s4g0QRv/5sHe2QNC41TFwb6GeUHO/wfBd15SQKal577aHIY+gK3Hv5ZNPkAXbmvAuVA6QBsubr8wFAY/sCAsv5bh3r6MaLk+kYJ7P930Qjz9pEfAws6NQIphXcDIuNU/
lpc_rms=-36.78
pitch_keycenter=b3
sample=Violin2Solo_pizzicato_FF_B3_RR4.opus
</region>

<region>
hikey=b4
hivel=127
lokey=a#4
lovel=1
lpc=pwMcQawCxcElF+hBhpvSwTd9ykHgX7HBn8p/QaJbVcHEwD1BccsIwRzaCEE1Zf7A0B8/QKLEQT95LVi/hd6qP/GpU8B/Ie1Agzg8wV1jPUEiuRrBn5UOQSNK3cCJQCJA
lpc_rms=-35.37
pitch_keycenter=b4
sample=Violin2Solo_pizzicato_FF_B4_RR4.opus
</region>

<region>
hikey=b5
hivel=127
lokey=a#5
lovel=1
lpc=3jVHQaA9ssFSIJZB7cwlwZi3gEDT3zg/vx8MwEY6zz9jbvm+Ghmkv85KskAi+e3Ab56fQDZFTL9WrNk/PJMHwImhur/KrYdAoHlawEtYtj9vZ7g+y2ggPQXmi7+dv4q+
lpc_rms=-25.60
pitch_keycenter=b5
sample=Violin2Solo_pizzicato_FF_B5_RR4.opus
</region>

<region>
hikey=E7
hivel=127
lokey=a#6
lovel=1
lpc=tZyTQBj7BsGqJuxAKBJ5wKENT0BZZC7AhlX1P+CVyL/5+TJAbexvwKDvnkAOMpTANeCqPwVV0j/+VKG/QO4iPzx+jr9084g/jp9ZvG8rzT5RB5a/ELG/PxEhor8fExo/
lpc_rms=-34.07
offset=1438
pitch_keycenter=B6
sample=Violin2Solo_pizzicato_FF_B6_RR4.opus
</region>

<region>
hikey=c#4
hivel=127
lokey=c4
lovel=1
lpc=oRUkQem52cFeWAhCqojWwUCeDEH0W+9AuvEqwdunskAKohg/GQakwAYuyUAk7oXA81i8PgGAVUB3XEPAa6Fzvzs2f0AJ7IDAjg3EPysCYT4IMso93kkUv1Ifaj8FbhG/
lpc_rms=-37.79
pitch_keycenter=c#4
sample=Violin2Solo_pizzicato_FF_C#4_RR4.opus
</region>

<region>
hikey=c#5
hivel=127
lokey=c5
lovel=1
lpc=RHUIQRHKo8GZrbRBW5SGwaEvLEHDIcfAawYkQAf+g7/YnvE/Nks8wNpArEB+kg3BlCkWQQEt2MC2n4JA60I+wCARA0BPsmo/BVVgwJvHgkDVpEbAgQjeP/TLJr9/gpU+
lpc_rms=-31.95
pitch_keycenter=c#5
sample=Violin2Solo_pizzicato_FF_C#5_RR4.opus
</region>

<region>
hikey=c#6
hivel=127
lokey=c6
lovel=1
lpc=T6FKQRG2uMFHC6BBjgRBwRSOa0B8JEZAojtvwOMPhj9ihUpALn2cwCF0hkD/kL4/faanwCQvmUBO/c88u42KwJFq9kBedOPA0CGoQPMV+b9xK7A+5bUowETroT4OIhpA
lpc_rms=-25.86
pitch_keycenter=c#6
sample=Violin2Solo_pizzicato_FF_C#6_RR4.opus
</region>

<region>
hikey=d#4
hivel=127
lokey=d4
lovel=1
lpc=pT49QXUWC8INhUJCr74uwhz7x0HHo6HAZhG6wIBdEEGQ29/A+U4Zvv7L60C38AjBDVmGQJDYjj+WX1PAYhLzP4eAyD7Z6AnAdJOTQA7GzMARZspAK26MwL0xlj9x0ZY+
lpc_rms=-36.15
pitch_keycenter=d#4
sample=Violin2Solo_pizzicato_FF_D#4_RR4.opus
</region>

<region>
hikey=d#5
hivel=127
lokey=d5
lovel=1
lpc=gZL6QJ2Hl8F4brFBTsaIwWzBIkGOi5fAS4F7QKBcnsCskFFArJKAvi/Ejr/a0Qw/y4YNQKT9oMATULxAFnmcwErxIkB5EZk/C5mCwJSfxUCsNbLA1iRMQK0zn79yjR0/
lpc_rms=-28.14
pitch_keycenter=d#5
sample=Violin2Solo_pizzicato_FF_D#5_RR4.opus
</region>

<region>
hikey=d#6
hivel=127
lokey=d6
lovel=1
lpc=bMevQO95C8E0X8ZAoN0vwAQBJT9LjlU+2MKHvjHjqz5GPq09bPSaPwlmA76Pi92/s3PoP3Q8l78fGMY/3veHv3m7Az/zzBM/uNuYvs7vEcAJulJAER0BwNesCT9N9uQ+
lpc_rms=-33.93
pitch_keycenter=d#6
sample=Violin2Solo_pizzicato_FF_D#6_RR4.opus
</region>

<region>
hikey=f4
hivel=127
lokey=e4
lovel=1
lpc=cTXvQBvVesFL21ZB0YemwH6YpMCCg2JBBFhowRSy9EAetJI/EUkGwb+MQUEsNiHBuPeAQFaiI0AOxefAgxL8QGtxYcCmBbm/RB57QNK+RMBwlIs/sm4MvxfjXT6JbLE+
lpc_rms=-40.84
pitch_keycenter=f4
sample=Violin2Solo_pizzicato_FF_F4_RR4.opus
</region>

<region>
hikey=f5
hivel=127
lokey=e5
lovel=1
lpc=8QQSQfrFrsHqZeZBZf/ewaxwskFefGXBXfbHQHQ5wj8K6J/AQJewQAt8VMDlJoo/02N6PAsoJMAiOM1A44zdwDUwykCD7pHAWrppQCBqvL6fZozAxA7EQIJEi8Co7hRA
lpc_rms=-34.94
pitch_keycenter=f5
sample=Violin2Solo_pizzicato_FF_F5_RR4.opus
</region>

<region>
hikey=f6
hivel=127
lokey=e6
lovel=1
lpc=I5KsQGlhBMED/5RAOqJ7v6Wd4z6A7xg+EhYqP5dfHL+fHDi/CYn+P0e0z7/3Jqo/ffYBvhd+AT/j7iG/EBGNPpIkJT+BfGLAV06hQP4vEsBo7EI/aW8tv3VkT77ehlU/
lpc_rms=-39.62
pitch_keycenter=f6
sample=Violin2Solo_pizzicato_FF_F6_RR4.opus
</region>

<region>
hivel=127
key=g3
lovel=1
lpc=5sANQZaLq8GbTaVByPwLwUmwKT+joFW/Q1gFQBiiTr+fevY96Rtov9Rkqz/AWHC/ak8dP6YdkL8sxkI/m6JiP/0xoT4imFzAz19CQE/Kkz4RNvS/xO27P11J3L8gqos/
lpc_rms=-46.39
sample=Violin2Solo_pizzicato_FF_G3_RR4.opus
</region>

<region>
hikey=g4
hivel=127
lokey=f#4
lovel=1
lpc=j6L0QPEGkcH6mplBJ/w3wctIej83bcBADbXSwAT/EUA1+GVAmgHKwBNlo0CN+xLAWVMMP20eQ78347Q/eTmVvwwkgD8B1nW+tBrmvyAPdUCyDH3Ap3cIQG6EFr/vGSs+
lpc_rms=-34.58
pitch_keycenter=g4
sample=Violin2Solo_pizzicato_FF_G4_RR4.opus
</region>

<region>
hikey=g5
hivel=127
lokey=f#5
lovel=1
lpc=CgbKQG7KVsEk4mFBgGIdwX2a0EB9GIPAPHInQBTnp7+3mXk/DqVKv7xppLxJLwBAXmoEwBn+sD+RFC2/DdiePqfTkz+MtgfAW95hQBYHYMDlZvY/cTS8vVxA2b7cKyQ/
lpc_rms=-27.92
pitch_keycenter=g5
sample=Violin2Solo_pizzicato_FF_G5_RR4.opus
</region>

<region>
hikey=g6
hivel=127
lokey=f#6
lovel=1
lpc=Xqa4QJisPsGEA1JBbdVDwZWYMEHtRbfAKFpOP7ktT78Sp8s/Vx0EvyUM6z/hbDrAZg3hPyK/MD91tw/AMxRdP2gMtD+C2CrAHaF/QC0GlsBWfVtAyAX+v1vJ6z9oqoO/
lpc_rms=-36.69
pitch_keycenter=g6
sample=Violin2Solo_pizzicato_FF_G6_RR4.opus
</region>
</group>

<group>
group_label=RR4_43-84
lpc_hicc1=84
lpc_locc1=43
seq_length=4
seq_position=4

<region>
hikey=a3
hivel=127
lokey=g#3
lovel=1
lpc=qULeQMoljcEjuahBq7OIwSfKQEH9xwLBz26TQD5eJMDwAy5AjYgPwKIGiD1IKW0/kI0mP60+sr9xtH4+IuDGvpWFqD8uicm8u4kqwHiyhEDGRlTAYRHNP9LCAL8QS/88
lpc_rms=-47.25
pitch_keycenter=a3
sample=Violin2Solo_pizzicato_MF_A3_RR4.opus
</region>

<region>
hikey=a4
hivel=127
lokey=g#4
lovel=1
lpc=yTYMQQM/osG5s7FBfkGEwaPf8kBrVVI/Itq8wOf9xkBqUIbAJ1knQHXLKj85H47AeerHQB2vyMDst7xApXutwFhpgkB5yx3AVrjhP+YMRb/zVoG/r9UnQNcTMMDjs7M/
lpc_rms=-36.72
pitch_keycenter=a4
sample=Violin2Solo_pizzicato_MF_A4_RR4.opus
</region>

<region>
hikey=a5
hivel=127
lokey=g#5
lovel=1
lpc=DDfrQJWyDMFXIj9Aa1Povh/tAMBD9YZAtaPdPn8vgcA9BhpAm3aAv5rayD9yPsk/NqEcwBHCOb9IjnE+h9PUPp43dkBaJw/A4s0hvzUqqb20R9C/3jeGQJ/ix7+KgnK/
lpc_rms=-30.90
pitch_keycenter=a5
sample=Violin2Solo_pizzicato_MF_A5_RR4.opus
</region>

<region>
hikey=a6
hivel=127
lokey=g#6
lovel=1
lpc=SRazQH4BL8GiLDJBCb0MwZgpFkGT+BfB7CD7QHW6wcCEhJRAqYLqv33umb/yj/Q/wKSov6IzRb83l1A/E9wNP5oVrb+xipG+7DmFP+7Geb+wFkM//xRxv/vTYz/bYQC/
lpc_rms=-40.79
offset=186
pitch_keycenter=a6
sample=Violin2Solo_pizzicato_MF_A6_RR4.opus
</region>

<region>
hikey=b3
hivel=127
lokey=a#3
lovel=1
lpc=pj38QHxLk8EX35pButBiwaNjC0EzjJDAAv4BQPYdir2qsDjAgyCHQJTCAsA+ZR6+oPSzPjP9ur1PRE0/ZlSsv3rvnD8Gs+G+ODOLvm4zir6wtgC+tuN2Pyncvr4Tzb28
lpc_rms=-43.87
pitch_keycenter=b3
sample=Violin2Solo_pizzicato_MF_B3_RR4.opus
</region>

<region>
hikey=b4
hivel=127
lokey=a#4
lovel=1
lpc=7xrqQK5IicG2a5RB5HU8waw+KUDTlEdADIRhwFR7Ib6ViURAi2tDwDNsI0D5fBW/kmNOvwP+gj6tH9U/wu6GwEQLrUDSTVjAV3Clvrrd6T9cf9G/NPmzP7dkyL4y7y47
lpc_rms=-35.05
pitch_keycenter=b4
sample=Violin2Solo_pizzicato_MF_B4_RR4.opus
</region>

<region>
hikey=b5
hivel=127
lokey=a#5
lovel=1
lpc=hP+BQUuZAMKZL/pBKErLwemmp0GVXC7BFe19QD7mFsDhgv8+17t9vYh9XT3oguI/VGEeQJ5/ccA0tLK/lz8oQIrOcj7/eL0/J/T0v/bM+D+tz2/AjgA4QD/nsb8ODi2+
lpc_rms=-24.98
pitch_keycenter=b5
sample=Violin2Solo_pizzicato_MF_B5_RR4.opus
</region>

<region>
hikey=E7
hivel=127
lokey=a#6
lovel=1
lpc=kbNcQD6HucBS6KdAkqqCwHQQbUC/BHfAgDAtQKRVnb/9jAc/FmY0vhnwxT70NIu/+NoYPxuAtTxuEkY+remGvqnvKT72fEi+UJqQPawmhzzFJmY8eiy+vpWrrT7uf2y+
lpc_rms=-45.25
offset=1980
pitch_keycenter=B6
sample=Violin2Solo_pizzicato_MF_B6_RR4.opus
</region>

<region>
hikey=c#4
hivel=127
lokey=c4
lovel=1
lpc=4lsiQfWSy8GPcvBBcZWrwYyqzUDAj6xARfgUwa4OsEDZ7yQ/1BbNwB59E0GvvNTAP6kXQGUnDL9tJ5k/QYjSvyn/bT+/LLQ9NGyrvPLY2L+UmDxAfu0bwHErAD9JPho/
lpc_rms=-39.88
pitch_keycenter=c#4
sample=Violin2Solo_pizzicato_MF_C#4_RR4.opus
</region>

<region>
hikey=c#5
hivel=127
lokey=c5
lovel=1
lpc=Ha/kQNi2hsHbP5RBiJdLwa/MtED3wTi/Jlqevw6Fdz6HR1g/nHx2vxuiA0BZBSLA6qtfP1804D8epjbAJILzP4jBnD0Xiyi/4Wu6vg5GsD/IR7G/b39KPwSEaL4miIg+
lpc_rms=-34.98
pitch_keycenter=c#5
sample=Violin2Solo_pizzicato_MF_C#5_RR4.opus
</region>

<region>
hikey=c#6
hivel=127
lokey=c6
lovel=1
lpc=NV7fQB5ZQMG6/hNBGpmpwCLJI0DdZOQ+h8oev0UMX7+Lxc0/GqIZwHGRlkBqsoLAjadAQK1jQ8BN9RhAXKVYv9m5jj8kRFq+aAXJv3x66D/4FNG+a70twEJLQECEazW/
lpc_rms=-31.56
pitch_keycenter=c#6
sample=Violin2Solo_pizzicato_MF_C#6_RR4.opus
</region>

<region>
hikey=d#4
hivel=127
lokey=d4
lovel=1
lpc=la8cQb722sHSzg5CJOzhwVkeTEHJ8Vi8AeI9wNVLQ8C3UA5B7jQqwcPVKkELIBfBb3P3QLFK3MCBZeVAYs7hwF54wEAEPJ3AfMxvQBcCScC0olpABNZOwMRA3z8ty0u+
lpc_rms=-43.26
pitch_keycenter=d#4
sample=Violin2Solo_pizzicato_MF_D#4_RR4.opus
</region>

<region>
hikey=d#5
hivel=127
lokey=d5
lovel=1
lpc=9snfQINHeMGEMXpBXnwJwcK/rj8LvkFANxYhwF5Zs7+cpYRAnxxbwMTuHT5tcphAObXHwC2EnkC25DHAEhOaPsn8lD8iiRa+qeZ8v1jVzTwaaQ1AMx5JwCQx5D/Aezo+
lpc_rms=-33.22
pitch_keycenter=d#5
sample=Violin2Solo_pizzicato_MF_D#5_RR4.opus
</region>

<region>
hikey=d#6
hivel=127
lokey=d6
lovel=1
lpc=Z2NuQHDqosCprHNAzrBiwJvHxj9Y336+9TyMP/OAuL9KkVA/AxZAP1Rpvr9WpwlAAhzFvz4gPT7JITI/O77gvkUerT6RwdI8NqekvsJ+078vHhtAmI/Sv/Id1T/zNBW/
lpc_rms=-43.50
pitch_keycenter=d#6
sample=Violin2Solo_pizzicato_MF_D#6_RR4.opus
</region>

<region>
hikey=f4
hivel=127
lokey=e4
lovel=1
lpc=4lLpQFoieMEef21BOeUEwR8NoD/51TdAJkIowFMSB8CNd7xAujzJwArwqkBOwUHAfmaVPxMy779OhVhAH/gtwG5IAEDei+i/PkbxP4ztg79O6jS/55ABQCPB2r8f3bM+
lpc_rms=-41.20
pitch_keycenter=f4
sample=Violin2Solo_pizzicato_MF_F4_RR4.opus
</region>

<region>
hikey=f5
hivel=127
lokey=e5
lovel=1
lpc=W3HeQCkchsF42KRB1QCMwQrVR0FjeQvBz83xQK8qzMC8dZ5AduRTwMsUCEAn0C4+W+VswNgbvUAPhp7AiRrfP+nlR0AwopzANSV2QFHw2L8ZwVO/MzcWQIVa3r/y0Gc/
lpc_rms=-34.82
pitch_keycenter=f5
sample=Violin2Solo_pizzicato_MF_F5_RR4.opus
</region>

<region>
hikey=f6
hivel=127
lokey=e6
lovel=1
lpc=fYoQQXNbZ8HcfPhAw1i+v98DRT7KWAy/0FUEPwFi4r6TLCdA8DJKwAtT1z8HRK2/Wwy4P23lkb/vBJM/NwKGvsZDyL9/W0jAgDzJQE06PsD8yr8+lSE6v7MF2z8pCYi/
lpc_rms=-30.47
offset=13608
pitch_keycenter=f6
sample=Violin2Solo_pizzicato_MF_F6_RR4.opus
</region>

<region>
hivel=127
key=g3
lovel=1
lpc=8kVIQXFYAcKkqRVCwk3kwRIAiUHHpybBMJUtQW58YcEF7m5B3tdHwbluDkHOTVTA6v+Zv/9umD9scA2/RhB2QGRozMA+/Nw//lmjQIn/0cA0aC1ANTgeQJMkksCUpQ1A
lpc_rms=-41.59
sample=Violin2Solo_pizzicato_MF_G3_RR4.opus
</region>

<region>
hikey=g4
hivel=127
lokey=f#4
lovel=1
lpc=eurgQFDedsGwWHlBd+wowVYhlkBEwkg+SM5PwICPNEBwgwW/NdgFwCBZe0CsAHPAjWUkQJH1/r29u22/0e73PiCfXz+92ve/X5AKQDn87b/toMk+DWlrP138yb/QkIQ/
lpc_rms=-40.89
pitch_keycenter=g4
sample=Violin2Solo_pizzicato_MF_G4_RR4.opus
</region>

<region>
hikey=g5
hivel=127
lokey=f#5
lovel=1
lpc=ihdXQACcusBkRq9AW56QwKsmVkAAObu/HfjRPqQZrb0LOs6+DUTfPljalD75R1A+M5v2vri4vb4lm6I/TxECwEFdREDD7HLAs4NsQLW4DMDgEoo/UtMMv1CjVDzCAY4+
lpc_rms=-37.69
pitch_keycenter=g5
sample=Violin2Solo_pizzicato_MF_G5_RR4.opus
</region>

<region>
hikey=g6
hivel=127
lokey=f#6
lovel=1
lpc=7Ao8QBdMf8Aryk9AnW4rwE9PtD/T15m/+knsP9LB0L9H0mk/mDo2v+8BMz+vCSC+6265PR2T5j0Zx1+/2QRev2tt8T8Yk+O/6TfJP+MYM7+uHjE/J/OXv6/mhT8fENK+
lpc_rms=-45.45
offset=7840
pitch_keycenter=g6
sample=Violin2Solo_pizzicato_MF_G6_RR4.opus
</region>
</group>